<svg xmlns="http://www.w3.org/2000/svg" width="300" height="49" viewBox="0 0 300 49" fill="none"><g clip-path="url(#clip0_1_2)"><path d="M29.471 20.423L32.6162 30.0588L34.2889 35.3439H40.5793L33.8217 13.9323H29.204H24.5863L17.8287 35.3439H24.1191L25.8586 30.0588L29.471 20.423Z" fill="#7E8083"></path><path d="M29.2746 31.4479C30.7138 31.4479 31.8776 30.2799 31.8776 28.8449C31.8776 27.41 30.7138 26.2462 29.2746 26.2462C27.8355 26.2462 26.6717 27.41 26.6717 28.8449C26.6717 30.2799 27.8355 31.4479 29.2746 31.4479Z" fill="#7E8083"></path><path d="M37.2627 2.52785C36.612 2.52785 36.0864 3.05344 36.0864 3.70417C36.0864 4.3549 36.612 4.88049 37.2627 4.88049C37.9134 4.88049 38.439 4.3549 38.439 3.70417C38.439 3.05344 37.9134 2.52785 37.2627 2.52785Z" fill="#7E8083"></path><path d="M42.1936 6.29458C41.5429 6.29458 41.0173 6.82017 41.0173 7.47508C41.0173 8.12998 41.5429 8.6514 42.1936 8.6514C42.8443 8.6514 43.3699 8.12581 43.3699 7.47508C43.3699 6.82434 42.8443 6.29458 42.1936 6.29458Z" fill="#7E8083"></path><path d="M45.9565 11.221C45.3058 11.221 44.7802 11.7507 44.7802 12.3973C44.7802 13.0438 45.3058 13.5736 45.9565 13.5736C46.6072 13.5736 47.1328 13.048 47.1328 12.3973C47.1328 11.7465 46.6072 11.221 45.9565 11.221Z" fill="#7E8083"></path><path d="M48.5673 16.7272C47.9166 16.7272 47.391 17.2527 47.391 17.9035C47.391 18.5542 47.9166 19.0798 48.5673 19.0798C49.2181 19.0798 49.7436 18.5542 49.7436 17.9035C49.7436 17.2527 49.2181 16.7272 48.5673 16.7272Z" fill="#7E8083"></path><path d="M49.7976 22.3752C49.1468 22.3752 48.6212 22.9008 48.6212 23.5515C48.6212 24.2022 49.1468 24.732 49.7976 24.732C50.4483 24.732 50.9739 24.2064 50.9739 23.5515C50.9739 22.8966 50.4483 22.3752 49.7976 22.3752Z" fill="#7E8083"></path><path d="M48.8548 28.6072C48.2041 28.6072 47.6785 29.1369 47.6785 29.7877C47.6785 30.4384 48.2041 30.964 48.8548 30.964C49.5055 30.964 50.0353 30.4384 50.0353 29.7877C50.0353 29.1369 49.5097 28.6072 48.8548 28.6072Z" fill="#7E8083"></path><path d="M46.2484 34.981C45.5976 34.981 45.072 35.5066 45.072 36.1615C45.072 36.8164 45.5976 37.3378 46.2484 37.3378C46.8991 37.3378 47.4247 36.8123 47.4247 36.1615C47.4247 35.5108 46.8991 34.981 46.2484 34.981Z" fill="#7E8083"></path><path d="M42.4106 40.1243C41.7598 40.1243 41.2342 40.6541 41.2342 41.3048C41.2342 41.9555 41.7598 42.4811 42.4106 42.4811C43.0613 42.4811 43.5869 41.9555 43.5869 41.3048C43.5869 40.6541 43.0613 40.1243 42.4106 40.1243Z" fill="#7E8083"></path><path d="M37.2627 44.108C36.612 44.108 36.0864 44.6377 36.0864 45.2843C36.0864 45.9308 36.612 46.4606 37.2627 46.4606C37.9134 46.4606 38.439 45.935 38.439 45.2843C38.439 44.6335 37.9134 44.108 37.2627 44.108Z" fill="#7E8083"></path><path d="M26.8006 18.404L29.9459 28.0399L31.6227 33.325H37.909L31.1514 11.9134H26.5337H21.916L15.1584 33.325H21.4488L23.1882 28.0399L26.8006 18.404Z" fill="white"></path><path d="M26.6005 29.4289C28.0354 29.4289 29.2034 28.2651 29.2034 26.826C29.2034 25.3869 28.0354 24.2231 26.6005 24.2231C25.1655 24.2231 23.9976 25.3911 23.9976 26.826C23.9976 28.261 25.1614 29.4289 26.6005 29.4289Z" fill="white"></path><path d="M0 24.2687C0 45.3257 20.6149 51.7579 34.9518 47.0985L32.3656 40.9666C24.3858 43.995 7.61273 42.0011 7.61273 24.2687C7.61273 6.53623 24.3858 4.53815 32.3656 7.56656L34.9518 1.43466C20.6149 -3.22058 0 3.20749 0 24.2687Z" fill="white"></path><path d="M73.9659 33.7922C67.98 33.7922 63.208 30.989 63.208 24.5151C63.208 18.4499 68.4097 15.2422 73.9659 15.2422C75.6387 15.2422 77.3114 15.5133 78.9257 15.8095L78.763 20.5273C77.6826 20.1769 76.5522 19.8807 75.3926 19.8807C72.5602 19.8807 70.4036 21.5534 70.4036 24.5193C70.4036 27.4851 72.3433 29.1578 75.2299 29.1578C76.4688 29.1578 77.6576 28.8867 78.8172 28.457L78.9799 33.0956C77.3614 33.5544 75.6637 33.7964 73.9659 33.7964" fill="white"></path><path d="M88.9125 33.7338C84.0529 33.7338 80.9535 31.4103 80.9535 26.3338C80.9535 21.2573 84.1154 18.9338 88.9125 18.9338C93.7096 18.9338 96.9132 21.2364 96.9132 26.3338C96.9132 31.4312 93.7513 33.7338 88.9125 33.7338ZM88.9125 22.3752C86.9144 22.3752 86.6975 24.8488 86.6975 26.3338C86.6975 27.8188 86.9353 30.2882 88.9125 30.2882C91.019 30.2882 91.1734 27.9231 91.1734 26.3338C91.1734 24.7445 90.9982 22.3752 88.9125 22.3752Z" fill="white"></path><path d="M109.39 33.496L108.464 30.4009H103.796L102.87 33.496H97.4264L102.461 19.1507H110.032L115.151 33.496H109.386H109.39ZM106.161 22.1833L104.718 26.9386H107.559L106.161 22.1833Z" fill="white"></path><path d="M122.054 33.7338C120.052 33.7338 118.054 33.5169 116.097 33.0664L116.206 29.3455C117.82 30.0129 119.606 30.2924 121.345 30.2924C122.012 30.2924 123.518 30.2716 123.518 29.3038C123.518 28.5071 121.541 28.2276 120.957 28.0774L119.493 27.7103C117.299 27.1722 116.006 25.9041 116.006 23.5598C116.006 19.6012 120.352 18.9129 123.447 18.9129C125.062 18.9129 126.651 19.084 128.224 19.4093L128.115 23.0885C126.78 22.6129 125.362 22.3585 123.94 22.3585C123.272 22.3585 121.445 22.3585 121.445 23.3262C121.445 24.123 123.168 24.294 123.723 24.4233L125.337 24.7654C127.744 25.2826 128.995 26.338 128.995 28.9367C128.995 32.8077 125.187 33.7338 122.05 33.7338" fill="white"></path><path d="M140.421 23.3888V33.496H134.914V23.3888H130.055V19.1507H145.284V23.3888H140.421Z" fill="white"></path><path d="M171.694 33.496L170.534 29.6125H164.686L163.526 33.496H156.702L163.013 15.5091H172.507L178.927 33.496H171.702H171.694ZM167.648 19.3134L165.841 25.2743H169.4L167.648 19.3134Z" fill="white"></path><path d="M180.749 33.496V19.1507H186.255V29.2579H193.009V33.496H180.749Z" fill="white"></path><path d="M201.868 33.7338C197.993 33.7338 194.727 32.2071 194.727 27.8605V19.1507H200.233V27.6686C200.233 28.8324 200.492 30.0338 201.91 30.0338C203.328 30.0338 203.674 28.8533 203.674 27.6895V19.1507H209.181V27.581C209.181 31.9276 205.739 33.7338 201.868 33.7338Z" fill="white"></path><path d="M227.248 33.496L227.223 22.225L224.344 33.496H219.76L216.878 22.225V33.496H212.147V19.1507H220.257L222.213 27.6227L224.086 19.1507H232.174V33.496H227.248Z" fill="white"></path><path d="M240.771 19.1507H235.265V33.496H240.771V19.1507Z" fill="white"></path><path d="M251.395 33.496L248.601 23.1093V33.496H243.866V19.1507H252.063L254.862 29.5583V19.1507H259.592V33.496H251.395Z" fill="white"></path><path d="M269.695 33.7338C265.824 33.7338 262.554 32.2071 262.554 27.8605V19.1507H268.06V27.6686C268.06 28.8324 268.319 30.0338 269.737 30.0338C271.155 30.0338 271.501 28.8533 271.501 27.6895V19.1507H277.007V27.581C277.007 31.9276 273.566 33.7338 269.695 33.7338Z" fill="white"></path><path d="M295.074 33.496L295.053 22.225L292.171 33.496H287.59L284.708 22.225V33.496H279.973V19.1507H288.083L290.043 27.6227L291.912 19.1507H300V33.496H295.074Z" fill="white"></path></g><defs><clipPath id="clip0_1_2"><rect width="300" height="48.5338" fill="white"></rect></clipPath></defs></svg>