<?xml version="1.0" encoding="UTF-8"?>
<svg id="Layer_3" xmlns="http://www.w3.org/2000/svg" version="1.1" viewBox="0 0 1461.5 377.2">
  <!-- Generator: Adobe Illustrator 29.1.0, SVG Export Plug-In . SVG Version: 2.1.0 Build 142)  -->
  <defs>
    <style>
      .st0 {
        fill: #231f20;
      }

      .st1 {
        fill: #fff;
      }

      .st2 {
        fill: #ce102c;
      }
    </style>
  </defs>
  <g>
    <path class="st0" d="M452.4,168.3v-84.8c0-24.4,12-37.5,33.7-37.5s34.2,13.1,34.2,37.5v12h-9.8v-12.6c0-18.4-8.4-27.5-24.2-27.5s-23.8,9.1-23.8,27.5v86.1c0,18.6,8.4,27.5,23.8,27.5s24.2-8.9,24.2-27.5v-39.1h-22v-9.5h31.8v48c0,24.4-12,37.5-34.2,37.5s-33.7-13.1-33.7-37.5h0Z"/>
    <path class="st0" d="M545,168.3v-84.8c0-24.4,12.2-37.5,34.2-37.5s34.2,13.1,34.2,37.5v84.8c0,24.4-12.2,37.5-34.2,37.5s-34.2-13.1-34.2-37.5ZM603.1,169v-86.1c0-18.4-8.4-27.5-24-27.5s-24,9.1-24,27.5v86.1c0,18.4,8.4,27.5,24,27.5s24-9.1,24-27.5Z"/>
    <path class="st0" d="M639.5,48.2h10.2v146.1h48.6v9.3h-58.8V48.2Z"/>
    <path class="st0" d="M721.7,48.2h33.7c23.5,0,34,11.8,34,37.1v81.2c0,25.3-10.4,37.1-34,37.1h-33.7V48.2h0ZM755.2,194.3c16.7,0,24-7.8,24-27.3v-82.1c0-19.5-7.3-27.3-24-27.3h-23.3v136.8h23.3Z"/>
    <path class="st0" d="M815.5,48.2h60.8v9.3h-50.6v60.4h42v9.3h-42v67h50.6v9.3h-60.8V48.2h0Z"/>
    <path class="st0" d="M900,48.2h14.2l45.7,129.2V48.2h9.8v155.4h-11.3l-48.6-139v139h-9.8V48.2Z"/>
    <path class="st0" d="M999.8,166.7v-8.9h23.1v10.7c0,11.1,4.9,15.1,12.7,15.1s12.9-4,12.9-15.5-5.3-20.9-21.3-34.9c-20.4-18-27.3-30.9-27.3-48.6s12.7-38.6,36.4-38.6,35.5,14.2,35.5,39.1v6.4h-23.1v-8c0-11.1-4.4-15.3-12.2-15.3s-12.4,4.2-12.4,14.9,5.6,19.3,21.5,33.3c20.4,18,27.1,30.6,27.1,50s-12.9,39.5-36.8,39.5-36-14.2-36-39.1h0Z"/>
    <path class="st0" d="M1113.8,70.4h-25.5v-22.2h75.5v22.2h-25.5v133.2h-24.4V70.4h0Z"/>
    <path class="st0" d="M1222.7,173.2h-28.2l-4.2,30.4h-22.6l25.3-155.4h33.1l25.3,155.4h-24.4l-4.2-30.4h0ZM1219.6,152.1l-11.1-78.4-10.9,78.4h22Z"/>
    <path class="st0" d="M1280.7,70.4h-25.5v-22.2h75.5v22.2h-25.5v133.2h-24.4V70.4h0Z"/>
    <path class="st0" d="M1349.2,48.2h66.6v22.2h-42.2v41.1h33.5v22.2h-33.5v47.7h42.2v22.2h-66.6V48.2h0Z"/>
    <path class="st0" d="M1428.8,59.2c0-6.8,4.8-11.7,11.3-11.7s11.3,5,11.3,11.7-4.8,11.8-11.3,11.8-11.3-5-11.3-11.8ZM1449.6,59.2c0-5.7-3.9-9.8-9.4-9.8s-9.3,4.1-9.3,9.8,3.9,9.8,9.3,9.8,9.4-4.1,9.4-9.8ZM1436.5,52.2h3.8c2.7,0,3.9,1.2,3.9,3.5v.4c0,1.7-.6,2.6-1.9,3.1h0c1.5.4,1.9,1.8,1.9,3.4v1.7c0,.6,0,1.3.2,1.9h-2.2c-.1-.5-.2-.9-.2-1.9v-1.9c0-1.5-.7-2.1-2.1-2.1h-1.4v5.9h-2.1v-14h0ZM1440.1,58.3c1.4,0,2.1-.6,2.1-2v-.4c0-1.3-.6-1.9-1.8-1.9h-1.7v4.3h1.4,0Z"/>
  </g>
  <g>
    <path class="st0" d="M367,182.1l-.3-8.4-8-2.8c-33.7-11.7-64.5-31.7-89-57.9-24.6-26.3-42.6-58.5-51.9-93l-2.2-8.1-8.4-.9c-6.2-.6-12.4-1-18.6-1C90.1,10,10,90.1,10,188.6s80.1,178.6,178.6,178.6,178.6-80.1,178.6-178.6,0-4-.1-6.5h0ZM188.6,354.9c-91.8,0-166.3-74.5-166.3-166.3S96.7,22.3,188.6,22.3s11.6.3,17.4.9c20.2,74.6,76.4,134.3,148.8,159.3,0,2,.1,4,.1,6.1,0,91.8-74.5,166.3-166.3,166.3h0Z"/>
    <path class="st1" d="M361.6,182.3l-.2-4.7-4.5-1.5c-34.5-12-66.1-32.5-91.2-59.3-25.2-26.9-43.6-59.9-53.2-95.3l-1.2-4.6-4.7-.5c-6-.6-12.1-.9-18.1-.9C93.1,15.4,15.4,93.1,15.4,188.6s77.7,173.2,173.2,173.2,173.2-77.7,173.2-173.2,0-3.9-.1-6.3h0ZM188.6,354.9c-91.8,0-166.3-74.5-166.3-166.3S96.7,22.3,188.6,22.3s11.6.3,17.4.9c20.2,74.6,76.4,134.3,148.8,159.3,0,2,.1,4,.1,6.1,0,91.8-74.5,166.3-166.3,166.3h0Z"/>
    <path class="st2" d="M205.9,23.2c-5.7-.6-11.5-.9-17.4-.9C96.7,22.3,22.3,96.7,22.3,188.6s74.4,166.3,166.3,166.3,166.3-74.5,166.3-166.3,0-4-.1-6.1c-72.4-25-128.6-84.8-148.8-159.3h0Z"/>
    <g>
      <path class="st0" d="M334,200.8c.5-1.3.7-2,.7-2.2,8.3,4.8,7-11.2,3.1-11-.7-5.6-3.5-2.6-6.2-1.3-1.6-.3-5.2-4-7.2-2-.8-.2-.2-2.4-.2-2.9,3-.5,6.8,3.9,7.6-1.5,2.9-1.2,4.1-1.7,3.5-4.8-1.2-2.7-6,.6-6.9-2.4,4.2,0,12.2,1.1,10.7-5.5-3.8.9-9.3-2.4-9.3-6.5-1,.2-6.1,3.5-6.9,3.6-2.8,0-2.7-3.6.3-3.9,3.1.3,3.2-2.8,3.4-3.2,0-1.5-1-3.4-2.9-2.3-1.4,0-2.7-1.5-3.8,0-2.4-2.4,2.7-5.1,1.3-8.6-5.9-.2-3.3,3.9-6.2-3.1-1.2,1.1-1.9,1.8-2.2,1.9-.6-2-3.2-3.2-4.9-1.7-.6-2.5-1-4.4-1.1-5.5-1.5-.6-5,2.2-4.9,1.9-1.6-1.3-3,.9-4.2,1.7,1-5.6,4.4-11.4-3.8-12.9v-1.2c2.9-6.2,20.8,6,24.5,7.9,1.5-.2,1.7-1,1.3-2.6-1.5,0-3.6.2-4.4-1.2,2.8-1,12.5-3.4,5.1-6.2-5.9,7-10.6,4.2-16.5-.9,1.2-2.5,3,2,4.4,1.4,1.8-1,1.5-1.1,3.4,0,3-.8,9.1-6.9,9.1-9.4-.3.4-1.9.2-1.6.2-1.5,0-3.8-2.2-5.1-.5-.6-.2-.4-1.9-.5-2.4,3.8,0,7.9.8,11.5,2.1,4.7.3,4.6-5.9,0-5.3.3-9.5-9.4-.8-10-5.5.6-4,3.6-.5,6-.7,4.1.5,3-3.2.2-3.4,2-.4,6.1-.9,7.1-2.3.6-.8.1-2-2.4-3.7,0,0,0,0,0,0-2.5-2.5-4.9.3-7.6-1.4,1-2.9,3.8-1.2,5.8-1.1,1.6,0,2.8-.8,2.4-5.6-5.3,1.2-2.4-5.2-5.3-7.4-1.4,2.7-2.2,4.5-2.7,5.5-1.4,2.9-.5-.4-6-5.2.4-.2.7-.4,1-.7,3.6-3,5.7-11.3,0-4.6-.5.9-1.2,1.9-2,2.3-.8.5-1.5.5-1.9-.6.2-.3.3-.6.5-.9,1.1-1.9,1.6-2.5.4-3.6-3.4-3.2-5.2-3.4-6.2-2.3-2.9,3.1,1,17.1-7.3,3.8-8.5.6-2.4,14.9-10.9,14.4-2.4.2-1.7-2.4-1.8-3.8,4.6-2.5,6.3-8.9,8.2-11.8-2.4,2.2-2.5-3.1-3.8-3.6-1,.6-3.5,1.8-3.4.2,0-1.4-3.6-5.8-1.7-6.4,1.3,2.3,8.2,7.1,3.4,2.2,1.6-5.8,7.9,4,11.7,2.3-2.3-2.6-6-3.5-4.8-6.5.2-.4.5-.9.9-1.5-.8-2.4-1.8-5.2-6.9-5.1.2,0-.2.4-1.1,1.1-.6.5-1.4,1.1-2.5,1.8,0-.4-1-.4-1.1-.7.7,3.2-1,1.3-1.8.8.7-1.6,1.8-2.8,3-3.7,5.5-4,14.9-.9,19.1,4.7-1-2.1-1.5-2.9-1.5-2.6,0-2.8,7.8-3.1,2.4-5.5-3.2,4.5-4.9,3-9.1.8,2.8-1.5,4.1-2.4,4.1-2.6h-.1c0,0,.1,0,.1,0,2.2,1.2,2.9-1.5,4.5.4,3.2-.5,6.6-5.4,2-6.2-2.1,1.2-3.3.8-4-.9,2.5-2.6,5.1-6.8.6-7.2-1,1.1-2.5,1-3.9,1-1.6,0-3.6,7.9-3,9.4-3.5,1.9-5.7,2.4-8-.5,6.8,1.5,6.8-9.9,1.3-6-1.8,1.5-2.1.8-3.6.2-2.1,0,0-.7,0-2.1s1-2.9,3.1-2.9c.3-.9,0-5.2.4-5.1-1-1.4-4.8-1.9-4.9-1.9.9-1.5.2-1.9,0-1.9,3.7-.4,5.2.8,8.2,2.2,2.9-.7,7.2-5.4,1.8-6.9-.2-1.8.3-4.9-1.8-5.3-11,7.2-6.6-3.7-14.9-2.8.7,6.5.8,7.2-3.1,1.7-2.2,1.9-2.7.8-4.7,1.4-.5,2.6,1.5,2.9,3.6,4.5-.3-1.1,1.5-.9,2-.5.2.8-.2,1.5-1.1,1.4,3,1.7,5.3,5,2.5,7.9.4-6-7.2-6.1-9.1-10.1-1.2,3.6-2.4,3.8-7.3,3.1,1.9,6.5,6.3,8.9,13.6,11.7-1.1-2-1.4-2.3-1.3-3.6.9.5,4.8,1.4,4.8,3.1,0,2.1.4,3-1.1,3-2.3-.3-6.7-1.7-8.7-1.5-1,0,2.6,2.6,1.7,4.5-5.7-2.6-10.9-13.6-12.5-1.2-1-3.1-2.2-1.8-3.8-1.4-.6.1-1.3.1-2-.3-9.1,7.3,9.8,6.6,11.3,12.8,1.6,1.9.5,5.4.5,7.3-2,0-3.8-4.5-5.1-5.7-1.1,1.6-.5,4.1-.9,6-3.9-3.4-1.7.6-.5,2.4,0,2.1.7,3.7,2.2,4.3,1.6.9,3.5,1,4.9,2.1.5.6,1.7,1.6,2.2.8,1.7-.5,4.3,2.5.9,2.6-1.2,0-4.8-3.4-6.5-2.4-2.4-2-6,.1-4.7,4.1-5.6,1.1-5.9-6.3-8-10.3.9,4,1,7.6-4.2,5.9-3.1-1.2-2.4-5-6-6.6-1.3,6.1,7,8.6,11.4,8.8h0c2,2.8-3.1,1.9-4.7,1.9,2.2,3,7.5-2.6,8,2.4-3-1.9-3.2,1.9-2.5,4.1,0,1.1-2.9.6-3.5.7-3.1,1.1-8.6-3.2-10.9-4.3.7,5.5-2,10.7,7.5,7.1,6.1-2.4,16.2-2.9,8.5,4.2-1.5-2.7-1.7-3.5-4.5-3.1-1.4,1.9,1.4,5.3,1.1,7.2-2.1,1.4-9,1.7-10.4,0,.3-2.5-.7-6.4-2.9-2.9-13.6-2.1-1.5,8.6,4.7,10.1-3.1,5.4-4.7-1.4-7.1.9-.6,1.1-1.4.2-2.2.4-4,1.3,6.9,7.4,2.2,9.6-.2,0-1.7-1.7-2.7-1.2,0,1.3-.2,2.3-.7,3.1-6-3.5-2.7,6.4-.2,5.8,1.3-1.1,2.6-.2,4,1.4-4.2,0-6.7-.1-7.6-.5,0,1.4,3.2,1.5,4,1.9-.4,1.1-1.3,1.8-2.2,2.4,22.9-6.4,1.8,6.3,15.3-.8,1.5,2.8,0,6.8-3.8,4.7,0,0,0,0,0,0,.5.7,1.2,1.2,2.5,1,1.2-.5,2.4-1.5,3.5-1.6,0,0,.1,0,.2-.1.4,0,.7.3.9.6h0c.3.6.3,1.2.4,1.9.3.7.6,1.3,1,1.9,1,.5,1.2,1.3.9,2.1,0,.6-.4,1.3-1.6,2-.5.4-1.1.7-1.6.8-1-.5-1.9-1-3-1.3h0s0,0,0,0c-1-.3-2-.5-3.1-.3h0c.1,0,.4.2.4.5s0,.2,0,.4c0,.2-.1.4-.2.6h0s1,.1,1.9.4c.7.2,1.4.5,1.7,1,0,0,0,0,0,0,0,0-.1.2-.1.5,0,.2,0,.5,0,.8,0,.7,0,1.6,0,2.2,0,.1,0,.2,0,.3,0,0,0,0,0,0-.8,0-1.4.2-1.7.5-.4.4-.6.9-.6,1.6s-.1.6-.3.9c0,0-.1.2-.2.2-.1.1-.2.3-.2.4,0,.1.2.1.7.1,0,0,.1,0,.2.1.4.2.7.4,1,.4.4,0,.8-.1,1.5-.7.5-.4,1-.5,1.4-.6,1.1-.1,1.7.9,1.6,2.1h0c-.1,1.6-1.4,3.5-4,2.9.6.8,1.3,1.3,2,1.4.4.1.9,0,1.3,0,.8-.1,1.7-.5,2.7-1.1-.3-.6,0-2.5.6-4.2.3-1.1.8-2.1,1.2-2.6.2-.2.3-.3.5-.3h.4c.9,0,1.9,0,2.5-.7,1.7.1,2,1,1.7,2.1-.3,1.1-1.3,2.4-2.2,3.3,0,.1.1.3.2.4.2.3.5.6.9.7.5.2,1.2.1,2-.4h0c.6.1,1.1.3,1.3.6,0,0,0,.1.1.1,0,0,0,0,0,.1.2.3.2.7.1,1,0,0,0,0,0,0,0,0,0,.1,0,.2-.3.9-1.1,1.7-2,2.1-.2.1-.5.2-.8.3.1,0,.2.1.3.2-1,1.3-1.9,1.6-3.3,1.5,0-.5-.1-.9-.5-1.2.2-.2.3-.3.4-.5-.2,0-.4,0-.7-.2,0,0-.1.2-.5.5-.5.3-1.4.8-2.6,1.5,0,0,.2.1.3.1,1.2.6,2.1,1.2,2.9,1.4.4.1.9.1,1.3,0,.7-.2,1.5-.8,2.4-2.1,1.1.5,1.5.9,1.4,1.2,0,.3-.5.6-1,.9-.8.4-1.9.9-2.2,1.7,0,.1,0,.2,0,.4,0-.2.4.4,1.2,2-2.1-2.1-4.2-3.8-6.6-4.5-1.1-.3-2.2-.5-3.4-.4-1.2,0-2.4.4-3.7,1-.7.5-1.6,1.2-2.2,1.8,0,0,0,0-.1.1,0,0,0,.1-.1.1,0,0,0,0,0,0,0,0,0,.1-.1.2-.4.6-.2,1.2.9,1.6,0,0,0,0,0,0,0,0,.1,0,.1,0,.1,0,.1-.2.1-.4,0-.4-.2-.9-.1-1,0,0,.1.1.2.1,0,0,.2,0,.2.1.2,0,.3.1.4.3,0,0,.1,0,.2-.1.5-.4,1-.7,1.3-1,.3-.2.5-.4.7-.5.2-.2.4-.3.5-.4,0,0,.1-.1,0-.1.4,0,.8,0,1.2,0,1.5.2,2.4,1,3,1.8.5.6.7,1.2.9,1.7,0,0,0,.1,0,.2,0,0,0,0,0,0,0,0,0,0,0,0-.3.4-.5.7-.6,1-.5,1.1,0,1.9.7,2.6h0c0,0,.2.1.2.2,0,0,0,0,.1.1s0,0,.1,0c.7.6,1.6,1.2,2.3,1.9-.4.2-.8.2-1.2.1-2.7-.6-6.4-5.6-7.5-1.9,0,0,0,0,0,.1,0,.1.3.4.6.6.4.3.8.7.9.8,0,0,0,0,0,0h0c-1.4-.5-3.2-1.8-4-3.2-1.4,1,1.4,3.8,1.3,4.8,0,.3,0,.5.2.5.2,0,.5,0,.8,0,.5-.1,1.1-.5,1.4-.7.3.2.5.6.7,1.1.3.7.5,1.4.9,1.8.3.3.7.3,1.2-.2-.4.9-1,2-1.7,3.2-.8,1.6-1.8,3.4-3.2,4.7-.4.5-.9,1.1-1.3,1.5v.4c.2.7,1.5.7,1.1,1.9h0c3.1.4,3.7-2,4.2-4.6,0-.7.1-1.4.2-2.1.2-.4.4-.8.5-1.2.3-.9.7-1.6,1.3-2.1.5-.5.9-.7,1.3-.7.3,0,.6-.1.9-.1.6.2,1,1.2,1.5,2.2.6.7,1.3,1.5,2.1,2.1.7-2.5.9-5.5,1.8-6.8.6-1,1.4-1.3,2.8-.1.6.4,1.3,1,2.2,1.8,2.4-5.3,6.5-7.1,7-.1-1,1.1-2.1,2.2-3.2,3.4-.6,1.1-1.5,2.2-2.5,2.6.8.7,1.4,1.4,1.9,2,.6.7,1.2,1.4,1.5,2.3.5.7.7.5,1.6-1.5,0-1.2-.5-2.5-1.8-2.6,1.9-1,3.3-1.5,4.9-2.1,1.4,3.5,2.8,7,4.2,10.5-.7-.1-1.3-.4-1.9-.8-.1.6-.3,1-.5,1.3-.8,1-2.2.3-3.5.1-.9,0-1.7.1-2.1,1.2,2.9.1,5.6,1,6.9,2,0,0,0,0,0,0,0,0,0,0,.1.1,0,0,0,0,.1.1h0c.7.7.7,1.4-.2,2,0,0-.1,0-.2.1,0,0,0,0-.1,0-.9.5-2.3.9-4.5,1.1,1,0,1.7.8,1.8,1.4,0,.2,0,.4,0,.5-.2.4-.8.7-1.9.6h0c-.6.2-1.2,0-1.7-.4-.7-.3-1.4-.7-1.9-.5,0,0-.1.1-.2.2,1,2,2.4,2.5,4.2,1.6.3,0,.6.1.9.3.8.2,1.4.6,1.6,1.8.3.6.4,1.2.1,1.7.5-.1.9,0,1.3.1.8.2,1.2.7,1.3,1.3.2.4.2.8,0,1.3h1.5c.6,5.3-7.1,3-9.1,9.5.3-.3.6-.5.9-.7.1-.1.3-.3.4-.5.2,0,.3.1.5.2.8,0,1.3.3,1.4,1,.4.6,0,1.2-.9,1.7-.9.7-2.4,1.4-4.8,1.8.2.4.5.6.9.7.6.1,1.2.1,1.8.2h.6c0,.1,0,.2,0,.4,0,.1.1.3.1.5,0,.1,0,.3-.1.4,0,.4-.4.6-1,.7-.4-.2-1.1-.5-1.9-1-2.9-1.3-7.4-4.3-11-5.6-2.5-.8-4.6-.9-5.5.8h0v.9c1.9.4,2.9,1,3.5,1.9.7,1.1.6,2.6.2,4.2-.3,1.1-.6,2.3-.8,3.5,0,0,0,0,0,.1,0,0,0,0,.1,0,1-.7,1.8-2.1,3-1.2,0,0,0,0,0,0,.1,0,.4-.3.8-.5.5-.3,1.1-.7,1.7-.9.4-.1.8-.2,1.1,0,0,.2,0,.5.1.7.1.8.4,2,.7,3.4.5-.5,1.2-.6,1.9-.5.2,0,.3.1.5.2.6.3,1,.8,1.3,1.4,0,0,0,0,0,0,.1,0,.3-.2.6-.4s.6-.6,1.1-1c.6.4.7,1.2.8,1.9.6,1.5.5,1.2,1.4.8,0-.2-.1-.4-.1-.3,2.2-4.8,5.5-9.4,9.1-13.4,4,7.2-6,29.8,6.9,29,0,.3.1.6.1.8v.2c0,.2,0,.3,0,.5,0,.1,0,.2,0,.3,0,0,0,.2,0,.3,0,.1,0,.2-.1.3,0,0,0,0,0,.1,0,.1-.1.2-.2.4,0,0,0,0,0,0-.1.1-.2.2-.4.3h0c-.3.2-.6.4-.9.5-1.1.4-2.7.5-4.1.4-.3,0-.6,0-.9,0,0,.6.3.9.7,1,1.1,0,2.4-.3,3.1.6h0c0,0,.1.2.1.2,0,0,0,0,0,.1,0,.2.1.5.1.9h0c0,.5,0,.9-.1,1.3-.2,0-.5.1-.7.2-.5.3-1,.6-1.5,1-.1.1-.3.3-.4.4-.2.3-.4.6-.5,1.1-.2.2-.4.4-.5.5-.5,1-.5,2,0,2.4.1,0,.2.1.4.2.3,0,.8,0,1.3-.1.7-.4,1.3-.8,1.9-1,0,0,.2-.1.2-.2.9-.1,1.1,0,1.3.6.2.4.5,1,.6,1.9,0,0,.2-.1.2-.2,0,0,0,0,0,0h0s0,0,0,0c.5.3.9.9,1.2,1.6.7,1.5.9,3.6.5,5.2,0,0,0,0,0,0,0,0,0,0,0,0-.3,1.2-1,2.1-2.1,2.2h-.4c-.5,0-1.2-.2-1.9-.6h0c0,.5-.1.9-.4,1.3,0,.1,0,.2-.1.4-.3.5-.8.6-1.4.5-.5,0-1.1-.2-1.8-.7,0,1,0,1.6-.3,2-.2,1.7-.5,3.4-.4,5.4.7,0,1.3-.1,1.9-.2,2.9-.7,5.4-1.6,4.6,2.8-.2,0-.5,0-.8,0-.5,0-1.2.2-1.8.4-.3.1-.7.3-1,.5,0,.1.1.2.2.3,0,0,.2,0,.3,0h0c0,.9-.2,1.6-.4,2.3-.1.4-.4.8-.6,1.1-.5.5-1.1,1-2.1,1.3h0c.7.6.9,1.1.8,1.5,0,.5-.4.8-1.2.8,0,0-.1,0-.1,0-.5,18.5-1.2,38.3-1.7,54.1,5.6-3.2,11-6.6,16.2-10.4-.2-10.4-2.1-105.1-1.8-112.8,2.3-2.2,4.2,4.5,5.6,5.8,4.5,1.4,3.9,7.9,5.6,9.9,1.2,3.1,3.6,3.2,5.8,1.5,4,3.3,3.2,3.8,5.8,3.6.2-1.5-.9-3.2.6-4.3,2,2.6,2.7,4.6,5.8,4.1-.1-1.6.5-2.9-1.1-4.3,1.8-1.3,5.2,3.8,7.1,3.3,5.1,0-.7-5-1.8-5.3,4.8-1,3.8,3.1,9.1,2.1,0-.6-.3-1.8-.2-2.4,3.1.3,6-.6,3.1-3.1,3.5-1,4-3.2,4.2-6.2-.3,0-.5-.2-.7-.5,1.9-.9,3.5-1.4,4.9-1.2,2-10.5-10.4,1.8-14-5.7-1.4-4.6-5.9-.8-8.5-.5-5.7.7-12.2-1.8-4.9-7.7,4.6,6.8,5.3-4.2,9.4,1.7h2.5c.1-4.9,8.1,7.5,7.8-1,1.5,1,3.5,1.5,4.2.2h0ZM302.1,122.4v1.7c-1.2-.5-2.2-.9-2.9-1.2l2.9-.5h0ZM270.3,29.7c-.4-.5-2-1.4-1.3-2.1l1.8,1.4-.5.7h0ZM259.8,41.7c2-.6,1.9,2.3,2.2,3.4-1.5-1.4-2.2-2.5-2.2-3.4ZM265.6,50.6c-.4-.9-.9-2.2-.9-3.1,1,.5,1.6,1.2,1.5,2.2-.4.4-.6.8-.6.9ZM237.1,105.1c-1-1.3-1.8-2.2-2.2-2.9h2.2c0,.6,0,2.2,0,2.9h0ZM241.1,102.4c9.4-3.8,3.2,3.7,8.5,6.5-1.9,1.7-4.7,2.1-7.1,1.2,9.6-2.9-4.2-5.6-1.4-7.7h0ZM240.7,113.9v-1.9c4.5,2.2,7.3-1,11.5-1.7-.2,3.8-8.5,3.7-11.5,3.6h0ZM250.3,122.5c-2.4.1-3-4.4-3.6-6,1.8-.5,3.8-1.2,6-2.2-1.6,2.7-3.6,4.9.5,6.2-1,1.3-2,1.9-2.9,1.9ZM261.8,217.5h-1.8c1.5-1.4,2.7-2.5,3.8-3.1-.7,1.5-1.4,2.5-2,3.1ZM264.2,214.3l-.5-.2.5-1.2.5.2-.5,1.2h0ZM267.5,208.8c-.9,1.2-2.3,3-2.9,4.1,1.7-2.9,3.3-11.1,7.8-9.1-1.9,1.6-3.5,3.3-4.9,5h0ZM282.2,51.2c.2,0,.4,0,.7.1,0,0-.2,0-.3.1-.8.4-2.4,1.1-2.8,1.3.1-2.3,1-1.9,2.5-1.6h0ZM277.2,111.4c0,1.4.1,2.6.4,3.6-3.4-.7-3.9-4.8-.5-4.8,0,.3,0,.9,0,1.2h0ZM275.9,51.1c.5,1.6,1.6,5.8-1,3.1,1.1-1.4,1.1-2.5,1-3.1ZM269.1,50.8c.3-.5.5-.8.7-1,0,1.5-.2,3.1-1.4,1.9.1-.2.4-.5.7-1h0ZM255.9,82.1c-1-2.5,1.7-3,2.6-4.9,2,1.7,3.7,4.9,5.3.5,2.2,1.6,5.4,4.4,8,1.9,1,1.1,5,4.1,5.7,5.5-2.2-.8-6-5.1-7.2-1.6.8-2.9-5.7-3.3-6,0-3.3-5.1-5.9.7-8.4-1.3h0ZM270.7,97.1c-1.3-1.2-4.7-4.2-5.1-4.8,4-.5,9.6,1.4,6.7,6.2-.6-.5-1-.9-1.6-1.4ZM271.8,114.3l-.7,1.7c-.9,0,0-1.3,0-1.7h.7ZM269.8,117.9c-3.6.6-5.2.5-2.7-3.1.6.3,2.2,2.7,2.7,3.1ZM259.8,103.3c2.6-.6,6.1,2.2,3.4,4.1-1.5-1.6-2.6-3-3.4-4.1ZM260.9,124.9c-.5.3-.7.5-.9.5v-2.6c.3.8.6,1.5.9,2.1h0ZM259.2,147.7l-1.1.7c-.2-.7.4-1,.9-1.2l.2.5h0ZM261.5,155.3c-1.7,2.3-5,7.5-7.7,3.6,1.7-2.5,3.4-5.9,5.3-7.2,1.5.3,3.5,1.6,2.3,3.6h0ZM263.4,140l2.6-4.1c0-1.3-6.9-6.1-4.9-8.1,3.3-1.3,7.2,3.8,7.7,4.8,1.5,2.9-4.6,6.5-5.5,7.4h0ZM270.5,141.5c.8,0-1,.5-5.3,1.7,1.2-1.5,3.3-4.9,5.3-1.7ZM269.7,150.9c-.7.7-1.3,1.2-1.8,1.3.3-1.9,2.3-4.4-.5-5.5,5-2.7,6.4-.2,9.8,3.8-1.9,2-5.8-2.5-7.5.4h0ZM276.6,169.7c-3-.4-3.7-5.1-4.9-7.7.4-.1,4.1.2,4.2-1.7.6.3,1.4.5,2.4.5-.4,4-1,6.9-1.8,8.9h0ZM279,143.1v-1.4c2.7-1.9,1.2,3.8,2,4.8-.9-1.4-1.6-2.5-2-3.4ZM293.2,161.8c-1.8,1.8-3.8,3.2-6,4.4.1-1.9-.6-6,1.9-6.2,0,.4,1.3.7,3,1.5.4.1.6.3,1,.4ZM291.7,152.2c0,.8-1.2,4.2-1.1,5-4-.3-1.7-5.4-.2-7.9l1.4,2.9h0ZM290.1,119.4c-.3.6-.4,1.5-.4,2.6-1.1-.9-1.1-1.8.4-2.6ZM286.9,122.5c1.3,1.3,2,2.5,2,3.6,0,2.2-.3,3.4-1.8,6.5.2-3.9-3.7-7.7-.2-10.1h0ZM283.8,113.1c3-.4,2.8,2.3.2,1.9.1-.3-.2-1.7-.2-1.9ZM286.1,195.4h-1.9c-.3-1.3.4-2.5,1.3-3.1.6,1.1.9,2.2.9,3.1h-.3ZM285.7,177.6c0-.1.3-1.3.9-3.4.8,2.3,4.8,4.9,3.6,8.1-2.2-1.7-3.7-3.3-4.5-4.8h0ZM292,184.6l-1.8-.9.2-.5,1.8,1-.2.5ZM290.6,169.7c.8-1.1,1.8-2.4,3.3-1.9-.4.6-1.5,1.3-3.3,1.9ZM301.5,192c-.7,0-1.9-.2-2.5.2v-5.3c1.9-.4,7.9,5.9,2.5,5h0ZM327.1,198.6l-1.3-1.5.2-.2,1.3,1.4-.2.2h0Z"/>
      <path class="st0" d="M229,132.6c-.1,1,.5,1.8,1,2.7-1.1-.4-2.3-.9-3.4-1.4-1.3-.5-2.6-.8-4.1-.7,0,0,0,0,0,.1-3.6.9-1.5-3-2.2-4.3-.1-.1-.2-.2-.3-.3-.4-.1-1,0-2,.3,0-.8.4-1.4.8-1.7.4.5.8,1,1.2,1.4.2,0,.3.2.3.3.3.3.7.6,1,.8,0,0,0-.1-.1-.2-.6-.9-1.1-1.9-1.4-3,.5.1,1,0,1.4.1-.7-.3-.7-1-.2-1.6,1.3-.3,2.8-.3,4.2-.6,0-.1,0-.2.1-.3,0,0,0,.1.1.2.8-.2,1.6-.5,2.2-1.1,0,0,0,0,0-.1-.2-.2-.5-.4-.6-.7-4.8,2.5-6.2-.1-4.9-4.7-.9,2.2-1.7,4.6-2.6,6.4-.2-.2-.3-.5-.5-.8-3.8,1.9,2.2,4.1-4.1,3.6,1.2-3.6-2-5.5-4.2-3.7-1.5-.9-4.7,2.2-5.8,2.1-3-.1-.7-2.8.8-2.4.4.7,1.5-.2,2-.7,1.3-.9,3-1.1,4.4-1.8,1.4-.5,1.9-2,2-3.9,1.1-1.6,3-5.3-.5-2.1-.4-1.6.2-3.9-.8-5.4-4.3,6.9-6.1,6.9-4.1-1.4,1.3-5.5,18.3-4.9,10.2-11.5-2.5,1.4-3.9-2.4-5.2,1.5-.1-.1-.5-1.5-1-4.1,0,0,0,0,0,0-2.8-4.5-6.6,4.6-10.1,5.1-.8-1.7,2.4-4.1,1.5-4.1-1.8-.2-5.8,1.1-7.8,1.4-1.3,0-1-.8-1-2.7,0-1.5,3.5-2.3,4.3-2.8,0,1.2-.2,1.5-1.2,3.2,6.5-2.6,10.5-4.7,12.2-10.6-4.2.6-5.6.4-6.6-2.8-1.7,3.6-8.6,3.7-8.2,9-2.6-2.7-.5-5.6,2.2-7.1-.8,0-1.1-.6-1-1.3.5-.3,2.1-.6,1.8.4,1.7-1.1,5-4.2,2.4-5.2-1.7,0-1.5.2-3.4-1.1-3.5,4.9-3.5,4.3-2.8-1.5-7.4-.9-3.5,9.9-13.4,3.4-1.9.4-1.4,3.1-1.6,4.8-4.8,1.4-1,5.7,1.6,6.2,2.7-1.3,4.2-2.4,7.4-2-.2,0-.8.4,0,1.8-.1,0-3.5.4-4.4,1.7.4-.1,0,3.8.4,4.6,1.9,0,2.8.9,2.8,2.6s1.8,1.9,0,1.9c-1.3.5-1.6,1.1-3.2-.2-5-3.5-4.9,6.7,1.2,5.4-2.1,2.6-4,2.1-7.2.4.6-1.3-1.3-8.4-2.7-8.4-1.2,0-2.6.1-3.5-.9-4,.3-1.7,4.1.6,6.5-.7,1.6-1.7,1.9-3.6.9-4.2.8-1.1,5.2,1.8,5.6,1.5-1.6,2.2.7,4.1-.4,0,0,0,0,.1,0,0,0,0,0-.1,0,0,.2,1.2,1,3.7,2.3-3.8,2-5.3,3.4-8.2-.7-4.8,2.2,2.1,2.5,2.2,5,0-.3-.5.5-1.4,2.4,4.6-6.2,16.2-9,19.8-.9-.8.4-2.3,2.1-1.6-.8-.2.3-1,.3-1,.6-2.4-1.7-3.4-2.6-3.2-2.6-4.3-.2-5.7,2.7-6.2,4.6,2.9,3.6-1.2,4.7-3.5,7.2,3.2,1.6,9-7.3,10.5-2.1.4.3-2,1.9-1.7,1.9.7,0,4.1-2.3,4.7-3.9,1.7.6-1.5,4.5-1.5,5.8.1,1.4-2.1.4-3-.2-1.2.5-1.3,5.2-3.4,3.2,1.7,2.5,3.2,8.3,7.4,10.6,0,1.3.5,3.6-1.6,3.5-7.6.5-2.1-12.4-9.8-13-.6.3-1.3,1.2-1.9,2.7-5.1,8.2-1.4-8.4-6.9-6.6-7.6,5.1-1.8,3.3-3.2,7.5-1.1,0-2-.8-2.9-2.4-5.6-6.5-3,2.9.8,4.8-6.5,5.7-2.9,9.1-7.8-.2-2.6,2,0,7.8-4.8,6.7-.8,9.8,5.8,1.4,7.4,6-2.4,1.5-4.5-.9-6.8,1.3-6.3,4.1,1.3,4.8,4.2,5.4-2.5.1-3.4,3.5.2,3,2.1.2,4.8-3,5.4.6-.5,4.3-9.3-3.6-9,5-4.1-.5-4.2,5,0,4.7,3.3-1.2,7-1.9,10.4-1.9,0,.5.2,2-.4,2.2-1.2-1.6-3.3.4-4.6.4.3,0-1.1.2-1.4-.2,0,2.2,5.5,7.7,8.2,8.4,1.6-1,1.4-.9,3,0,1.3.5,2.9-3.5,4-1.3-5,4.5-9.9,7-14.8.8-6.6,2.5,2,4.7,4.6,5.6-.8,1.3-2.6,1.1-4,1.1-.3,1.5-.2,2.2,1.1,2.4,5.7-3.2,12.9-8,20-8.8,7.3,5-7.3-.2-1.4,14.4-1.1-.7-2.4-2.7-3.8-1.5.1.2-3.1-2.3-4.4-1.8-.1,1-.5,2.7-1,5-1.5-1.4-3.8-.3-4.4,1.5-.3-.1-.9-.7-2-1.7-2.5,6.1-.4,2.6-5.6,2.8-1.2,3.1,3.3,5.6,1.2,7.8-1-1.3-2.2,0-3.4,0-1.7-1-2.5.7-2.6,2,.2.5.3,3.1,3.1,2.9,2.7.2,2.8,3.5.3,3.5-.8-.1-5.3-3.1-6.2-3.3,0,3.6-5,6.6-8.4,5.8-1.4,5.9,5.8,5,9.6,5-.8,2.7-5.1-.3-6.2,2.1-.5,2.8.6,3.2,3.2,4.3.5,4.7,4.2.9,6.8,1.3,0,.5.5,2.4-.2,2.6-1.7-1.8-5,1.5-6.4,1.8-2.4-1.2-4.9-3.8-5.5,1.2-3.7.1-4.5,14.2,2.8,9.9,0,1.9,2,3.7,4.4,1.7-.5,7.6,6.8-3.3,7,.9h2.2c3.5-5.1,4.6,4.5,8.4-1.5,6.5,5.3.7,7.5-4.4,6.9-2.4-.3-6.3-3.7-7.6.4-3.3,6.8-14.4-4.3-12.6,5.2,1.2-.2,2.7.2,4.4,1.1-.1.3-.3.5-.6.5.2,2.7.6,4.7,3.8,5.6-2.6,2.3,0,3.1,2.8,2.8,0,.6-.1,1.6-.2,2.2,4.6.9,4-2.9,8.2-1.9-1,.2-6.2,4.8-1.6,4.7,1.7.4,4.8-4.2,6.4-3-1.4,1.3-.9,2.4-1,3.9,2.7.5,3.4-1.3,5.2-3.7,1.4,1,.4,2.5.6,3.9,2.3.1,1.6-.3,5.2-3.2,2,1.5,4.1,1.5,5.2-1.4,1.5-1.8.9-7.6,5-8.9,1.6-2.8,5.6-10,5-1.9.1,0,.2-.1.3-.2,1.3-1.1,2.5-2.3,2.5-3.8h0c0-.2,0-.3,0-.5,0-.2,0-.4-.1-.5.1-.1.2-.2.4-.2.8-.3,1.7.2,2.4.7.6.4,1.1.7,1.3.4.2-.2.2-.8-.1-2.1.2.1.4.2.6.3.8.3,1.3-.2,1.7-.9.4-.7.8-1.6,1.4-1.8.2-.1.5-.2.8,0,0,0,0,0,0,0-.3-.3-.6-.6-.9-.9.4-.3,1.5-.5,2.1,0v-.2c0-.5-.1-1,0-1.4h.5c.6,0,1.1-.2,1.5-.4-1.1-1-3.5-.6-4.2-1.6-.9.5-1.8,1.8-2.9,2.6-.1.2-.3.3-.4.5-.4.1-.8.1-1,0-.3,0-.5,0-.8,0-.1-.3-.1-.7-.2-1-.3-.7-.5-1.4-1-1.6-.1,0-.3,0-.5,0-.8.9-1.6,1.4-2.5,1.5-1.6.7-3-.3-3.9-1.7-1-1.1-1.5-2.7-1-3.9.1-.9.6-1.5,1.4-1.5.2,0,.4-.1.5-.2.1-.4.3-.9.5-1.3.1.1.3.3.5.5,0,0,0-.1.1-.2,0,0,.1-.2.2-.3.6.5,1.9,1.4,2.9,2.1h0c0-.5,0-1,.1-1.4.1-.4.3-.9.4-1.3.2-.6.5-1.2.7-1.8,0-.2,0-.4,0-.6-1.7.2-3.6.2-5.1-.2-1-.3-1.9-.8-2.4-1.5,0,0,0-.2-.1-.3,0-.1-.1-.2-.1-.3-.3-.8-.3-1.8.2-3.1,1.3,1.5,2,2.3,2.5,2.7.8.6.9.2,1.1-.2.2-.5.6-.9,2-.1.2.1.5.3.8.5,0,0,0,0,0,0h0c.1-.4.1-.8.1-1.2,0-.8-.3-1.5-.7-2.2-.4-.5-1-1-1.7-1.3-.2-.9-.5-2.8-.5-4.3v-.7h0c0-.6.1-1.1.2-1.4.3-.8,1.1-.9,2.6.8,0-.8.6-1.9,1.8-3.2,0,0,0,.2,0,.2,0,.3.2.6.3.9,0,.1,0,.3.1.4.7,2,1.8,4.8,3.2,5.5h0c0,0,.1,0,.2,0,0,0,0,0,.1,0,0,0,.1,0,.1,0h.3c.7-.1,1.5-.9,2.2-2.7h0s.1.1.2.2c.1.1.3.3.6.5,1.2-2.3.7-2.5-.2-2.7-.6.4-1.1,0-1.5-.8-.4-.5-.6-1.2-.6-2.5v-.5c.5,0,.9,0,1.2-.2.6-.3.6-.9.5-1.7-.1-.7-.5-1.5-.6-2.1-1.5.8-3.6,6.4-4.4,2.4,0,0-.1,0-.2,0-1.7.9-3,1.1-4.4,1.2-.9.1-1.8.1-2.7,0v-1.8c.6.2,1.4.6,2.2.7.1,0,.3,0,.4,0,.6,0,1.2,0,1.6-.6h0c-.4,0-1.1-.2-1.7-.4-.9-.3-1.7-.8-2-1.5,0,0,0-.1,0-.2,0,0,0,0,0,0h0c0-.3,0-.5,0-.7,0,0,.1,0,.2,0,.1-.2.4-.4.7-.7.5.3.9.7,1.2,1,1.2.6,2.6,1.5,4,1.8h.4c.2-1.3-.6-1.8-1.4-2.3-.3-.1-.6-.3-.9-.5,0,0-.1-.1-.2-.2,0,0,0,0,0,0-.2-.2-.4-.4-.5-.7.8.2,1.7.3,2.6.4,0-.6-.2-1.3-.3-2,.5,0,.9,0,1.2-.1,0,0,0,0,0,0-.6,0-1.5,0-2.4-.3-.3,0-.6,0-.9-.1-.2,0-1-.4-1.8-1-1-.6-1.7-1.3-1.9-2.1-.4-.8-.3-1.6.8-2.1.9,1.1,1.7,2.5,2.3,4.1.4-.2.9-.2,1.4,0,.5.1.9.2,1.3.2.5-.4.4-.9.2-1.3-.2-.5-.5-.9-.5-1.4,0,0,0,0,0-.1,0,0,0,0,0,0,0-.1.1-.2.2-.4.1,0,.3,0,.4,0,.1,0,.2,0,.4,0,0,0,0,0,0,0,0,0,0,0,.1,0,.2,0,.4.2.5.4.7-.3,1.2-.7,1.6-1.2.9-1,1.3-2.2,1.6-2.9.2-.5.5-.7.9-.5.4.3,1,1.1,1.9,2.7.2-.4.5-.6.9-.7.7-.2,1.6,0,2.4.1.7,0,1.3,0,1.5-.6.2-.5.2-1.5-.2-3.2,0,0-.1,0-.3.1-.2.1-.5.2-.8.4-.5.2-1.1.5-1.6.7-.1,0-.2.1-.3.1.2.5.3.9.3,1.2-.4,0-.9-.8-1.4-.7-.1,0-.2.1-.3.1,0-.1.2-.3.4-.4-1-3-8,2.1-6.5-1.3-.4.1-.7.2-1.1.3.2-.1.4-.2.5-.4.2-.1.3-.3.5-.4.2-.2.4-.5.5-.7,0-.1.1-.2.2-.3-.6-.4-2.9-.4-3-1.4.1,0,.6.1,1.2.2.8,0,1.8.1,2.8.1.5,0,.9-.1,1.3-.3-.9-.9-1.6-1-2.3-1-.1,0-.2.1-.4.2-.4,0-.8-.2-1.2-.6-.5-.3-.9-1-1.2-2.6.1,1.5-.9,2.2-1.8,3.9.7-.9-.5-5.9,1.7-4.3,0-1,.4-1.3.9-1.3.4,0,1,0,1.7.5h0c0-.1.2-.3.2-.5s.1-.4.2-.5c0-.4.1-.8.1-1.3h0c0,0,.2,0,.3,0,.7,0,1.5.9,1.7,1h0c.2,0,.3-.2.5-.3.3-.3.4-.6.4-.9,0-1-1.1-2.2-2-3.3-.6-.7-1.1-1.4-1.2-1.9,0-.3,0-.6.4-.8,0,0,0,0,0,0h0c0,0,.1,0,.2,0h0c.4,0,.7.1,1,.1s.3,0,.4-.1c0,0,.1-.1.2-.3.2-.2.4-.3.6-.3h0c0,0,.2,0,.2,0h0c0,0,.2,0,.2,0,0,0,0,0,0,0,0,0,0,0,.1,0,.8.4,1.5,1.3,2.4,1.1.5-.1,1-.6,1.5-1.5,0,0,0,0,0,0-.3,0-.6-.2-.9-.3,0,0,0,0,0,0-.1,0-.3-.1-.5-.2-2-.8-4.2-2.4-5.6-3.9h0c0,0,0-.1,0-.1-1.2-1.3-1.5-2.5-.3-3,0,0,.1,0,.2,0,0,0,.1,0,.2,0,.7-.2,1.9-.1,3.5.1.6-.9,1.1-1.2,1.4-1,.1,0,.3.1.3.3.3.4.4,1.1.4,1.8.2.6.4,1.2.9,1.6.7.3,1.8.4,2.8.4,0,0,0,0,0,0,.8,0,1.5-.1,2-.2,1-.2,1.7-.7,2-1.5-.2-.7-.7-1.5-.9-2.6-.2-.7-.2-1.4.1-2h0s0,0,.1,0c.5,0,.8,0,1.1,0,.4,0,.7.2,1,.5.3.4.6,1,1.1,1.8,0,0,0,0,0,0,.4-.5,1-1,1.5-1.6,1.7-2.4-.6-3-3.5-2.7-1.4.3-3,.8-4.5,1.2-.3.1-.6.2-.9.3,0,.5-.9.5-1.8.5-.3,0-.6,0-.9,0-.1,0-.3,0-.3.1-1.6,0-1.5-3-1.5-4.9,0-.5,0-.9,0-1.4,1.7.8,5.8,4.1,8.2,3.2.3,0,1.2,0,1.8,0,.3,0,.6-.1.7-.3,0,0,.1-.2.1-.3-.3-.8-.4-1.9-.1-2.6h0s0,0,0,0c.1-.4.3-.6.6-.7.3,0,.8,0,1.3.4,0-.7-.3-1.1-.6-1.4,0,0-.2-.1-.2-.1,0,0,0,0,0,0-.4-.1-.9,0-1.4,0-.1,0-.2,0-.4,0-.2,0-.5.1-.7.2,0,0-.1,0-.2,0-.2,0-.5,0-.7.1,0,0,0,0-.1,0-.6,0-1.2-.1-1.6-.7h.2c.5,0,1.2,0,1.8,0,.5,0,.9,0,1.2-.1.6-.2.9-.6.3-1.4h0c-.3,0-.6,0-.9-.1-.5,0-1-.2-1.6-.3-.3,0-.6.1-.8.4-.4-.4-1-.8-1.6-1.3-1.3-.6-2.5-1.4-3.1-2.5-.6-.8-.9-1.8-.5-3,.3.1.5.2.7.4.9.6,1.4,1.5,1.8,2.3.3.5.5.9.8,1.2.1.2.3.3.4.5.5.4,1.2.2,2.1-1.4h2.2c0-.8-.2-1.7-.3-2.5.2.4.4.8.5,1.2,0,.1,0,.2.1.3.1.4.3.7.4,1.1.2.5.4,1.1.6,1.6.1.3.2.6.4.9,0,0,0,.1,0,.2.2.4.4.8.7,1.1.1.2.2.3.4.5.7.7,1.6,1.1,2.9.8-.4-1.1-.2-2,.2-2.7,0,0,0,0,0,0,0,0,0,0,0,0,.4-.6,1.1-.9,1.9-.9.5,0,1,.2,1.4.6.6-.3,1.1-.1,1.7.1.2.1.5.2.7.4.2-.4.4-.7.4-.9,0,.6.1,1,.4,1.3.5.3.9.5,1.4.7.6,0,1.2,0,1.5-.3.2-.3,0-.7-.4-1-.3-.2-.8-.3-1.5-.5-.4,0-.8,0-1.3-.3-1.3-.5-2.7-1.7-4.1-1.9-1.1-.5-1.6-1.6-1.7-3.2,0-.1-.2-.3-.3-.5-.4-.7-.9-1.5-1-2-.1-.5.2-.6,1.6.6.1-.5.1-1.1.1-1.7,0-.8,0-1.6.3-2.3,0-.2.1-.3.3-.5.5.5,1,1.3,1.5,2.1,1.4,2,2.4,3,2.6.3,0-2.1-.6-4.4-2.4-5.8-2.5-1.5-6.3-1.7-7.7-3.5-.9-.7-1.2-1.5-.4-2.5,0,0,0-.2,0-.3-1.6-1.2-4,.5-4.7,1.5-.3-2.9-6.1-2.6-5.4,0-1.1-3.1-4.5.7-6.5,1.5.7-1.3,4.2-3.9,5.1-4.9,2.3,2.2,5.2-.3,7.2-1.7,1.5,4,3,1.1,4.8-.4.4,1.4,2.5,1.7,2.4,3.2.3,0,.5-.2.8-.2.6-.3,1-.4,1.4,0,.1.1.3.3.4.6-1-2.7,0-3.6,2-3.6.2-.1.4-.2.8-.3.2.1.4.2.6.4,3.3.4,8,2.2,10.2,2.5,0,0,0,0-.1.1.3,0,.6.1.8.2.5,0,.8,0,1.1,0,.4-.3.6-.6.6-1,0-.6-.5-1.4-1.1-2-.8-.7-1.9-1.3-2.6-1.4h.1ZM209.4,102.4h1.2c0,.7-.7,1.7-2,3,.1-.9.4-1.9.8-3ZM206.2,107.6c0,.8-.4,1.9-.8,2.8-.8-.8-.6-2.2.8-2.8ZM202.3,89.7c.6.7-.9,1.5-1.2,1.9l-.4-.6,1.6-1.3h0ZM172.6,176.5v-1.5l2.6.5c-.6.3-1.5.6-2.6,1.1ZM150.1,243.4l-.2-.2,1.2-1.3.2.2-1.2,1.3h0ZM175.3,237.6c-.7-.5-4.1,0-4.2-.5-.1-1.6,2.6-4.5,4.2-4.3v4.7h0ZM184.6,173.7l-.8.9c0-1-.1-1.8-.4-2.4.8.4,1.2.9,1.2,1.5h0ZM183.1,199.1c1.3,2.2,3.3,6.9-.2,7.1-.4-2.3-1.5-5.1.2-7.1ZM181.5,209.9c1.6-.7,2.7-1,2.7-1.3,2.3.2,1.6,3.9,1.7,5.6-2-1-3.8-2.3-5.4-3.9.4-.1.6-.3.9-.4h0ZM179.9,215.7c1.4-.4,2.3.7,3,1.7-1.6-.6-2.6-1.1-3-1.7ZM181.7,230.8l-.2-.4,1.6-.9.2.5-1.6.8ZM183.3,228.8c-1-3,2.5-5.3,3.2-7.3,1.6,4.5,0,4.2-3.2,7.3ZM187.3,178c-.6,1.9-1,3.6-1.3,6-1.7-4-2.8-6,.2-9,1.1.8,1.9,1.7,1.1,3.1ZM188.8,167.4v.9c-2.3.3-2.5-2.1.2-1.7,0,.1,0,.4-.2.9h0ZM191.2,111.7c-.7-.3-1.1-.5-1.4-.7,1.7-.2,2.7-1.1,2.8,1.3-.3-.1-.7-.4-1.4-.6h0ZM200.4,169.2l-.6-1.5h.6c0,.4.8,1.5,0,1.5ZM205.4,147.9c-.9,1.1-4.4,4.1-6,5.6-.2-.7-.5-1.7-.8-2.9.3-2.5,4.9-2.8,6.8-2.6ZM195,164c3.1,0,2.6,3.7-.4,4.3.3-1.1.4-2.9.4-4.3ZM196.1,110.8c0,.6,0,1.5.9,2.8-2.4,2.4-1.3-1.3-.9-2.8h0ZM201.6,109.7c.1.1.4.4.6.9.3.4.5.7.6.9-1,1-1.2-.4-1.2-1.7Z"/>
      <path class="st0" d="M197.2,288.4c-.6.9-1.5,1.5-2.6,1.3h0s0,0,0-.1c-.2-.2-.3-.4-.3-.5,0-.6.7-1.2,1-1.9h0c-.5,0-1,0-1.5,0-.9.1-1.6.3-2,.2,0,0,0,0,0,0s0,0-.1,0c0,0,0,0,0,0-.3-.2-.3-.8,0-2-.2.2-.5.3-.7.5-.4.3-.8.5-1.1.8-.7.5-1,.8-.7.8-.1,0-.3,0-.4.1l-1.3,67.5c.4,0,.8,0,1.2,0,4.5,0,9-.2,13.4-.5-.9-23.8-1.8-53-2.5-71.2-1,1.5-1.2,3.9-2.3,5.3h0Z"/>
      <path class="st0" d="M198.8,266.1c-.6.8-1.2,1.1-1.8,1.1-1.2,0-2.4-1.4-3.3-2.5h0c-.5.2-.8.2-1.2.1-.5-.2-1-.6-1.4-1-.1-.1-.3-.3-.5-.4-.5-.5-1-1-1.4-1.1,0,.1,0,.2,0,.4-.4,1.9-.3,3.4.3,4.6.4.8.9,1.4,1.6,1.8.6.7,1.4,1.2,2.4,1,.1,0,.3-.2.5-.2,1.1,0,2.3-.6,3.3-1.5,1.7-.9,3.2-2,2.4-3.4-.2.5-.5.8-.7,1.1v-.2c0,.1,0,.2,0,.3h0Z"/>
      <path class="st0" d="M199,265.9c0-.1.2-.3.2-.5,0,.2-.1.3-.2.5Z"/>
    </g>
    <path class="st1" d="M237.6,269.9c.5-3.8,4.5,5,6.2,5,.7,2.2,1.6,5,2.2,6.2.9,2.4,2.7,2.4,4.3,1.1,3,2.4,2.4,2.8,4.4,2.7.1-1.1-.7-2.4.5-3.2,1.5,2,2.1,3.5,4.4,3.1.2-2.4-1.9-5.1,2-2.1,5.1,3.8,4.8-1.2,1.2-2.6,3.4-.8,3.2,2.4,6.9,1.6,0-.4-.2-1.3-.2-1.8.6,0,1.2,0,1.8,0h0c0,0,0,0,.1,0,.6-.1,1.1-.4,1.2-.8,0-.5-.3-1-.8-1.5h0c1-.3,1.7-.7,2.1-1.3.3-.3.5-.7.6-1.1.2-.7.3-1.4.4-2.3-.1,0-.2,0-.3,0,0,0-.1-.2-.2-.3h0c.4-.2.7-.3,1-.5.7-.2,1.3-.4,1.8-.4.3,0,.5,0,.8,0,.5-4.4-1.3-3.4-4.6-2.8-2.1.5-4.5,1-5.6-1-1.1-3.9-4.4-1.4-6.6-.8-4.1.5-9.2-1.3-3.7-5.8,3.1,5,4.1-3,7,1.2h1.9c.1-3,4.4,3,5.5,1.2.1-.7.2-1.3.3-2,.5.4,1.2.6,1.8.7.6,0,1.2-.4,1.5-.9.2-.7.4-1.2.4-1.3h0c.7.4,1.4.6,1.9.6h.4c1.1-.1,1.8-1,2.1-2.2,0,0,0,0,0,0s0,0,0,0c.4-1.6.1-3.7-.5-5.2-.3-.7-.8-1.3-1.3-1.6,0,0,0,0,0,0,0,0-.2,0-.2.2-.3-.9-.4-1.5-.6-1.9-.4-.6-.9-.7-1.5-.5-.7.5-1.4.8-1.9,1-.2.1-.5.3-.7.4-.2,0-.4-.1-.6-.2-.1,0-.3-.1-.4-.2-1.4-.8-3.1-2.3-4.4-1.1-.6-.2-.2-1.8-.2-2.2,1.5-.5,3.3,1.5,4.6.9.2-.5.6-1.1,1.1-1.6.1-.2.3-.3.4-.4.4-.4,1-.7,1.5-1,.5-.3.8-.7.9-1.4h0c0-.4,0-.7-.1-1,0-.1-.1-.2-.2-.3h0c-.7-.9-2.2-.4-3.1-.6-.8,0-1.6-.1-1.9-1,.4,0,.8,0,1.2,0h0c.3,0,.6,0,.9,0,1.4,0,2.9,0,4.1-.4.4-.1.7-.3.9-.5h0c.1-.1.2-.2.4-.3,0,0,0,0,0,0,0-.1.2-.2.2-.4,0,0,0,0,0-.1,0-.1.1-.2.1-.3,0,0,0-.2,0-.3,0-.1,0-.2,0-.3,0-.1,0-.3,0-.5v-.2c0-.3,0-.5-.1-.8-2.9.8-7-2-7-4.9-.7.1-4.5,2.6-5.2,2.7-2.1,0-2-2.7.2-2.9,2.4.3,2.5-2.4,2.6-2.4,0-1.1-.8-2.6-2.2-1.8-1,0-2-1.1-2.8,0-1.8-1.8,2-4,1-6.5-1.3,0-2,.2-2.5.4,0,0,0,0,0,0-1.2.6-1.4,0-1.5-.9-.2-.5-.4-1.1-.8-1.9-.5.4-.8.8-1.1,1-.3.2-.5.4-.6.4,0,0,0,0,0,0-.2-.6-.7-1.1-1.3-1.4-.2,0-.3-.1-.5-.2-.6-.2-1.3,0-1.9.5-.3-1.4-.6-2.6-.7-3.4,0-.3,0-.5-.1-.7-.3-.1-.6,0-1.1,0-.6.2-1.2.5-1.7.9-.4.2-.7.4-.8.5,0,0-.1,0,0,0-1.2-.9-2,.4-3,1.2,0,0,0,0-.1,0h0s0,0,0-.1c.2-1.2.6-2.4.8-3.5.4-1.6.5-3.1-.2-4.2-.5-.9-1.6-1.5-3.5-1.9v-.9h0c.8-1.9,2.9-1.7,5.5-.8,3.7,1.2,8.2,4,11,5.6,1.5.7,2.6.9,2.9.3,0-.2,0-.5,0-.9-.1-.2-.4-.3-.7-.4-.6,0-1.2,0-1.8-.2-.4-.1-.7-.3-.9-.7,1.1-.4,3.4-1,4.8-1.8.7-.6,1-1.2.9-1.7-.2-.3-.6-.6-1.4-1-.3,0-.6.1-.9.3-3.9,4.5-8,2.6-12-1.1,1.1-2,2.6,2.5,4,.7.7-1,1.1.3,1.8.4,2.2-.6,6.8-5.2,6.8-7-.2.3-1.5.1-1.2.2-1.1,0-2.8-1.7-3.8-.4-.5-.2-.3-1.4-.3-1.8,2.6.2,5,.1,7.6,1.3,2.3,1.1,4-.8,3.7-2.3-.2-.6-.7-1-1.3-1.3-.2,0-.4-.1-.6-.1h-.7c0-.7,0-1.2-.1-1.7-.4-.7-1-1.4-1.6-1.8-2.1-.4-5.4,1.7-5.8-.7.2-.9.5-1.3.9-1.4.6-.5,1.2,0,1.9.5.5.2,1.1.5,1.7.4h0c1.1.1,1.7-.2,1.9-.6,0-.2.1-.3,0-.5-.1-.6-.8-1.4-1.8-1.4,2.2-.2,3.7-.6,4.5-1.1,0,0,0,0,.1,0,0,0,.1,0,.2-.1.9-.6.8-1.3.2-2h0c0,0,0-.1-.1-.1,0,0,0,0-.1-.1,0,0,0,0,0,0-1.3-1-4-1.9-6.9-2h0c.3-1.3,1.2-1.4,2.1-1.2,1.3.1,2.7.7,3.5-.1.2-.3.4-.7.5-1.3,0,0,0,0,0,0,.1-.6.1-1.4,0-2.4-4,.9-1.8-3.9-4-5.6-.6,1.3-1.1,2.3-1.5,3,0,1-.5,2-1.4,2.2,0-.2-.1-.5-.2-.7-.3-.5-.7-1.3-1.5-2.3-.8-.8-1.5-1.5-1.9-2,.8-.9,1.6-1.8,2.5-2.6,1.4-2.5,1.5-5.1-1.8-1.3-.5,1-1.8,2.6-2.7,1.7.3-3.5,2.4-2.3-1-4.9-.2-.2-.3-.3-.5-.5-1.4-.9-2.3-.7-2.8.1-1,1.7-1.1,5.5-1.8,6.8h0c-.9,0-1.5-1-2.1-2.1-.9-1-1.7-2-2.4-2-.5.1-1,.4-1.3.7-.4.5-.8,1.1-1.3,2.1-.3,1-.5,2.1-.7,3.3-.3,2.5-1.2,5-4.2,4.6h0c-1,0-1.3-.7-1.1-1.5v-.3c0-.1,0-.2,0-.4h0v-.6c.5-.2.9-.6,1.3-.9,1.1-1.4,2.3-3.1,3.2-4.7.6-1.2,1.1-2.4,1.7-3.2-.6.5-1,.5-1.2.2-.4-.4-.6-1.1-.9-1.8-.2-.5-.4-1-.7-1.1-.3.2-.9.5-1.4.7-.3,0-.6.1-.8,0-.2,0-.3-.2-.2-.5.1-1-2.6-3.8-1.3-4.8.8,1.4,2.6,2.8,4,3.2,0,0,0,0,0,0,0-.1-.5-.5-.9-.8-.3-.2-.5-.5-.6-.6,0,0,0,0,0-.1,1.1-3.7,4.8,1.2,7.5,1.9.5.1.9,0,1.2-.1-.7-.8-1.6-1.4-2.3-1.9,0,0,0,0-.1,0s0,0-.1-.1c0,0-.2-.1-.2-.2h0c-.8-.7-1.2-1.5-.7-2.6.1-.3.3-.7.6-1,0,0,0-.1,0-.2-.2-.5-.4-1.1-.9-1.7-.6-.9-1.6-1.6-3-1.8-.4,0-.8,0-1.2,0,0,0,0,0,0,.1,0,0-.2.2-.5.4-.2.1-.4.3-.7.5-.4.3-.8.6-1.3,1,0,0-.1,0-.2.1,0-.1-.2-.2-.4-.3,0,0-.2,0-.2-.1,0,0-.1,0-.2-.1,0,.1,0,.7.1,1,0,.2,0,.4-.1.4s0,0-.1,0c0,0,0,0,0,0-1.2-.4-1.3-1-.9-1.6,0,0,0-.1.1-.2,0,0,0,0,0,0,0,0,0-.1.1-.1,0,0,0,0,.1-.1.6-.6,1.5-1.2,2.2-1.8,1.3-.6,2.5-.9,3.7-1,1.2-.1,2.3,0,3.4.4,2.4.7,4.5,2.4,6.6,4.5-.8-1.5-1.2-2.2-1.2-2,0-.1,0-.3,0-.4.3-.8,1.3-1.2,2.2-1.7.5-.3,1-.6,1-.9,0-.3-.3-.7-1.4-1.2-.9,1.3-1.6,1.9-2.4,2.1-.4.1-.8,0-1.3,0-.8-.2-1.7-.7-2.9-1.4,0,0-.2,0-.3-.1h0c1.2-.7,2.1-1.2,2.6-1.5.4-.2.5-.4.5-.5,0,0,0,0,0,0,.5,0,.5.1.8.2,0,0,0,0,0,0,1.1.1,1.7-1.1,2.7,0,.1,0,.2,0,.3,0,0,0,0,0,0,0,.3,0,.5-.1.8-.2.9-.5,1.7-1.3,2-2.1,0,0,0-.1,0-.2,0,0,0,0,0,0,0-.4,0-.7-.1-1,0,0,0,0,0-.1,0,0,0-.1-.1-.1-.3-.3-.7-.5-1.3-.6h0c-.7.5-1.4.6-2,.4-.4-.1-.6-.4-.9-.7,0-.1-.1-.3-.2-.4,1-1,1.9-2.2,2.2-3.3s0-1.9-1.7-2.1c-.6.8-1.6.8-2.5.7h-.4c-.1,0-.3,0-.5.3-.4.5-.9,1.5-1.2,2.6-.5,1.7-.8,3.6-.6,4.2-1,.5-1.9.9-2.7,1.1-.5,0-.9.1-1.3,0-.7-.2-1.3-.6-2-1.4,2.6.6,3.8-1.3,4-2.9h0c0-1.2-.5-2.3-1.6-2.2-.4,0-.8.2-1.4.6-.7.6-1.1.7-1.5.7-.3,0-.6-.2-1-.4,0,0-.1,0-.2-.1-.5,0-.7,0-.7-.1,0,0,0-.2.2-.4,0,0,.1-.2.2-.2.2-.2.3-.5.3-.9,0-.7.2-1.3.6-1.6.4-.4,1-.5,1.7-.5,0,0,0,0,0,0,0,0,0-.2,0-.3,0-.5,0-1.4,0-2.2,0-.3,0-.5,0-.8,0-.3,0-.5.1-.5,0,0,0,0,0,0-.3-.4-1-.8-1.7-1-.9-.3-1.8-.4-1.9-.4h0c.1-.2.2-.4.2-.6,0-.1,0-.2,0-.4,0-.4-.2-.5-.4-.5h0c1.1-.2,2.1,0,3.1.3,0,0,0,0,0,0h0c1,.3,2,.8,3,1.3.6-.3,1.1-.5,1.6-.8.7-.5,1.4-1.2,1.6-2,0-.6-.4-1.3-.9-2.1-.3-.1-.5-.3-.9-.4,0-.4,0-1,0-1.5-.2-.5-.3-1.1-.4-1.8,0,0,0,0,0-.1-.3-.4-.7-.5-1-.5-1.5,1-2.6,1.4-3.5,1.6-1,.4-1.9.4-2.5-1-1.1-1.5-1.7-3.8-5-3.5.4,4.3.9,5.8-2.3,1.3-1.7,1.4-2,.6-3.5,1.1-.2.9,0,1.6.6,2.2h.1c0,.1,0,.1,0,.1.6.6,1.3,1.2,2,1.8,0-1.7,3,.4.6.7,2.2,1.2,4,3.7,1.9,5.9.4-4.3-5.1-4.5-6.7-7.3,0,0-.2,0-.2,0-.9,2.5-2,2.5-5.4,2.1.4,1.1.7,2.1,1.4,3,1.3,1.9,3.3,3.3,5.5,4.3,1.1.4,2.1.9,3.4,1.4-.5-1-1.1-1.7-1-2.7,1,0,1.9.6,2.6,1.4.7.6,1.2,1.4,1.1,2,0,.4-.2.8-.6,1-.1,0-.2.1-.4.2-.2,0-.5,0-.8-.1-.2,0-.5,0-.9-.1h0c-1.7-.4-3.8-1-5-.8-.7,0,2,2.4,1.3,3.4-2.4-.9-4.3-3.8-6.4-5.2-.5,0-.9,0-1.3,0-1.3.8,1.1,2.2,1.7,2.5-.5,0-1.9-1.4-2.5-1.6-.4,1.6-.5,2.5-.8,3.4-.3-.7-.5-1-.7-1.3-.4-.4-.9-.2-1.4,0-.2.1-.5.2-.8.3h0c-.4,0-.9,0-1.5-.3-.7.5-1.2.9-1.5,1.3-.2,1.1,0,1.9.4,2.5,1.8,1.4,5.7,2.3,7.3,3.2.1,0,.2.2.4.3,1.3.7,2.2,1.8,2.4,3.5,0,1,0,1.7,0,2.3,0,.6-.1,1.3-.2,1.9-.9-.1-1.7-1.1-2.4-2.2-.5-.6-.9-1.4-1.5-2.1-.1.1-.2.3-.3.5-.3.7-.3,1.5-.3,2.3,0,.6,0,1.2-.1,1.7-1.4-1.2-1.8-1.2-1.6-.6.1.5.5,1.3,1,2,.1.2.2.3.3.5,0,1.6.5,2.8,1.7,3.2,1.4.2,2.8,1.4,4.1,1.9.5.2.9.3,1.3.3.5-.1,1.1.1,1.5.5.7.4.7.8.4,1-.1.2-.5.4-1.2.5-.1,0-.2,0-.3-.1-.5,0-1-.3-1.4-.7-.2-.1-.5-.3-.8-.5,0,0,0,0,0,0-.3-.2-.5-.3-.7-.4-.6-.2-1.1-.4-1.7-.1-.4-.4-.9-.5-1.4-.6-.7,0-1.4.3-1.9.9,0,0,0,0,0,0,0,0,0,0,0,0-.4.6-.5,1.5-.2,2.7-1.3.3-2.2-.1-2.9-.8-.1-.1-.3-.3-.4-.5-.2-.3-.5-.7-.7-1.1,0,0,0-.1,0-.2-.1-.3-.2-.6-.4-.9-.2-.5-.4-1.1-.6-1.6-.1-.4-.3-.8-.4-1.1,0-.1,0-.2-.1-.3-.2-.4-.4-.9-.5-1.2h0c.7,3.1.6,5.8-3.3,4.4-.3-.1-.5-.3-.7-.5-.1-.1-.3-.3-.4-.5-.3-.4-.5-.8-.8-1.2-.5-.8-1-1.7-1.8-2.3-.2-.1-.5-.3-.7-.4-.2,1.1,0,2.1.5,3,.8,1,2,1.8,3.1,2.5.8.4,1.6.6,2.5.8.5,0,1.1.2,1.6.3.3,0,.6,0,.9,0h0c.6.9.3,1.2-.3,1.4-.3,0-.8.1-1.2.1-.6,0-1.3,0-1.8,0h-.2c.4.6,1,.7,1.6.7,0,0,0,0,.1,0,.2,0,.5,0,.7-.1,0,0,.1,0,.2,0,.2,0,.5-.1.7-.2.1,0,.2,0,.4,0,.5-.1,1-.2,1.4,0,0,0,0,0,0,0,0,0,.2,0,.2.1.3.2.5.7.6,1.4-.6-.4-1-.4-1.3-.4s-.5.4-.6.7c0,0,0,0,0,0h0c-.2.8-.1,1.9.1,2.7,0,.1,0,.2-.1.3-.1.2-.4.2-.7.3-.7,0-1.6,0-1.8,0-2.4.8-6.5-2.4-8.2-3.2,0,.3,0,.8,0,1.4,0,2.7-.1,4.6,1.8,4.8.2,0,.5,0,.9,0,.5,0,1.1-.2,1.8-.5,0,0,0,0,0-.1.3,0,.6-.1.9-.2,0,0,.1,0,.2,0,1.3-.5,2.9-.9,4.3-1.1,1.3-.3,2.5-.4,3.3,0,1.5.7,1,1.7.2,2.6-.3.5-.8,1-1.5,1.6,0,0,0,0,0,0-.5-.8-.8-1.4-1.1-1.8-.3-.3-.6-.5-1-.5-.3,0-.7,0-1.1,0,0,0,0,0-.1,0t0,0c-.2.7-.2,1.4-.1,2,.2.9.7,1.9.9,2.6h0c.2.8-.1,1.2-2,1.5-.6.2-1.3.2-2,.2-1.4.3-2.3,0-2.8-.4-.4-.1-.7-.3-.9-.5,0-.3,0-.7,0-1.1-.2-.7-.3-1.4-.4-1.8-.1-.1-.2-.3-.3-.3-.3,0-.7.2-1.4,1-1.6-.2-2.7-.3-3.5-.1,0,0-.1,0-.2,0,0,0-.2,0-.2,0-1.3.5-.9,1.7.3,3,0,0,0,0,0,.1,0,0,0,0,0,0,1.4,1.5,3.6,3,5.6,3.9.1,0,.3.1.5.2,0,0,0,0,0,0,.3.1.6.2.9.3h0s0,0,0,0c-.6,1-1.1,1.4-1.5,1.5-.9.2-1.6-.7-2.4-1.1,0,0,0,0-.1,0,0,0,0,0,0,0,0,0-.2,0-.2,0h0c0,0-.2,0-.2,0h0c-.2,0-.4.1-.6.3,0,.1-.1.2-.2.3-.1.1-.3.1-.4.1-.3,0-.6-.2-1-.1h0c0,0-.2,0-.2,0h0s0,0,0,0c-.3.2-.4.5-.4.8.1.5.6,1.2,1.2,1.9.9,1.1,2,2.3,2,3.3,0,.3-.1.6-.4.9-.1.1-.3.2-.5.3h0c-.2,0-1-1-1.7-1-.1,0-.2,0-.3,0h0c0,.5,0,.9-.1,1.3,0,.2,0,.4-.2.5,0,.2-.1.3-.2.5h0c-.7-.3-1.3-.5-1.7-.5-1.4.2-.7,3,.4,4.3.5.3,1,.3,1.5.4.9-.4,1.8.5,2.6,1.3-.5,0-1.1,0-1.7,0-1,.1-2,0-2.8-.1-.6,0-1-.1-1.2-.2,0,1,2.4,1.1,3,1.4h0c0,.1-.1.2-.2.3-.1.3-.3.5-.5.7-.1.1-.3.3-.5.4-.2.1-.3.2-.5.4,3-1.5,11.9-2.6,7.2,1.4.1-.1.2-.1.3-.1.3-.1.7-.3,1.1-.5h0c.1,0,.2,0,.3-.1.5-.2,1.1-.5,1.6-.7.3-.1.6-.3.8-.4.1,0,.2-.1.3-.1.4,1.7.5,2.7.2,3.2-.3.6-.8.6-1.5.6-.8,0-1.6-.3-2.4-.1-.4,0-.7.3-.9.7-.9-1.7-1.5-2.5-1.9-2.7-.4-.2-.6,0-.9.5-.4.7-.7,1.9-1.6,2.9-.4.5-.9.9-1.6,1.2h0c-.1-.2-.3-.4-.5-.4,0,0,0,0-.1,0,0,0,0,0,0,0-.1,0-.2,0-.4,0s-.3,0-.4,0c-.1.1-.2.2-.2.4,0,0,0,0,0,0,0,0,0,0,0,.1,0,.4.3.9.5,1.4.2.5.3,1-.2,1.3-.4,0-.9-.1-1.3-.2-.5-.1-1-.2-1.4,0-.7-1.7-1.5-3.1-2.3-4.1-.7.7-.9,1.4-.8,2.1.4.8,1.1,1.5,1.9,2.1.8.5,1.8.9,2.7,1.1.8,0,1.7,0,2.4.3.1,0,.2,0,.3,0,0,0-.2,0-.3,0,.7.2,1.3.6,1.5,1.4,3.8,1.3-3.9,1-5,.4.1.3.3.5.5.7,0,0,0,0,0,0,0,0,.1.1.2.2.3.2.6.4.9.5,1.7.7,4,.4,5.5-.9-1.1,3.1-2.8,3.6-4.4,3.2-2.3,0-3-.9-4-1.8-.7-.3-1.4-.5-1.9-.4-.1.2-.2.4-.2.6h0c0,.1,0,.2,0,.2,0,0,0,.1,0,.2.3.6,1.1,1.2,2,1.5.6.2,1.2.3,1.7.4h0c-.4.6-1,.7-1.6.6-.1,0-.3,0-.4,0-.8-.2-1.6-.5-2.2-.7v1.8c1,0,1.8,0,2.7,0,1.5-.2,3-.6,4.4-1.2,0,0,.1,0,.2,0h0c1.6-.7,3.2-1.5,4.4-2.4.2.6.5,1.4.6,2.1.1.7.1,1.4-.5,1.7-.3.1-.6.2-1.2.2v.5c0,.8.2,1.8.6,2.5.4.5,1,.7,1.5.8,0,0,.1,0,.2-.2.9.4,2.1,3,1.2,3.8-.5-.4-1.4-1-1.8-1.4-.1-.1-.2-.2-.2-.2-.8,1.8-1.5,2.6-2.2,2.7h0c0,0-.1,0-.2,0,0,0-.1,0-.1,0,0,0,0,0-.1,0,0,0-.1,0-.2,0h0c-1.3-.7-2.5-3.5-3.2-5.5,0-.1,0-.3-.1-.4-.1-.4-.2-.7-.3-.9s0-.2,0-.2c-1.2,1.3-1.8,2.4-1.8,3.2-1.5-1.7-2.2-1.6-2.6-.8-.1.3-.2.8-.2,1.3h0v.8c0,1.5.3,3.4.5,4.3.8.2,1.4.7,1.7,1.3.5.6.7,1.4.7,2.2,0,.3,0,.6,0,.9-.1.1-.1.2-.1.4h0s0,0,0,0c-.3-.2-.6-.4-.8-.5-1.4-.8-1.8-.3-2,.1-.2.4-.3.9-1.1.2-.5-.4-1.3-1.2-2.5-2.7-.5,1.3-.5,2.3-.2,3.1,0,.1.1.2.1.3,0,0,0,.2.1.3.5.8,1.3,1.2,2.4,1.5,1.5.5,3.4.5,5.1.2,0,.2,0,.4,0,.6-.1.6-.4,1.2-.7,1.8-.2.4-.3.8-.4,1.3-.1.4-.2.9-.1,1.4h0c-1-.8-2.2-1.7-2.9-2.1,0,0-.1.2-.2.3,0,0,0,.1-.1.2h0c-.3.4-.6.9-.7,1.2-.4-.1-.7-.2-1-.2-.8.4-1.2.9-1.4,1.5-.1,1.1.3,2.6,1,3.9,1,1.1,2.4,1.9,3.9,1.7.3-.1.7-.4,1-.7.9-.8,1.5-1,1.9-.8.8.2.9.9,1,1.6.2.5.5.9,1,1.1.5,0,1-.3,1.5-.6,6.8-7.9,9.8-2.6,7.1-1,.1.1.3.2.4.4h-1.8c-.1,0-.3,0-.5,0h0v1.4c.2,1,.7,2,1.4,2.9-.8,0-1.3-.2-1.8-1-.3-.4-.5-.7-.8-.8-.3-.1-.5-.1-.8,0-.5.3-.9,1.1-1.4,1.8-.4.7-.9,1.2-1.7.9-.2,0-.4-.1-.6-.3.3,1.3.3,1.9.1,2.1-.2.3-.7,0-1.3-.4-.8-.4-1.7-1-2.4-.7-.1,0-.2.1-.4.2,0,.2.1.4.1.5,0,.1,0,.2,0,.4h0c0,1.5-1,2.9-2.5,3.9-2.2,1.9-4.6,3.3-.2,5.2,0-.1,0-.2,0-.4.5.2.9.7,1.4,1.1.2.2.3.3.5.4.5.5,1,.9,1.4,1,.4.1.7,0,1.2-.1h0c.9,1.1,2.1,2.5,3.3,2.5.6,0,1.2-.3,1.8-1.1.1-.2.3-.5.4-.7-.1.2-.2.4-.3.6.2-.3.5-.7.7-1.1.8,1.3-.6,2.5-2.4,3.4-1,.9-2.2,1.4-3.3,1.5-.2,0-.4.2-.5.2-1,.2-1.8-.3-2.4-1-.6-.4-1.2-1-1.6-1.8-.5-.4-1-.6-1.7-.2v2.9c0-.2,0,1-.2,1.1-2.5-1.8-2.9-3.9-5.2-2.1,1.7,2.4,4.1,7.2-.8,4.5,0,2.5,4.6,3.3,5.7,4-2.1,3.3-3.6,3.9-6.5,2-1.6,6.5,7.2,1.2,7.7-1.6,6.7,7.2-.9,2.3-2.3,6.7.4-.8.2,3.5,2.6,3.1h0c0-.1.4-.1.4-.1-.2,0,0-.2.7-.8.3-.2.6-.5,1.1-.8.2-.1.4-.3.7-.5h0c-.3,1.2-.3,1.8,0,2,0,0,0,0,0,0,0,0,0,0,.1,0s0,0,0,0c.4.1,1.1,0,2-.2.4,0,.9,0,1.5,0h0c-.3.7-1.1,1.3-1,1.9,0,.2.1.4.3.5,0,0,0,0,0,.1,1.2,0,2-.5,2.6-1.3,1-1.5,1.5-3.9,1.8-4.7.2-.3.4-.5.5-.7h0c.6-.9,1.4-1.5,2.8-1.5,3.8.6,12-5.8,13.4-3.4-1.3,2.3-5.4,1-3.7,4.1h1.7c0,.1,0-1.1.2-1.3,2.3,1.6,4.7-2,5.3-4.2-.6,6.6,5.5,4.3,3,.2,1.6-3.6,4.1-7.1,6.8-10.1,1.4,20.8-1.2,44.1-2,83.4,4-1,8-2.1,12-3.3l-1.3-66.4c0-3.3,0-7.5,0-10.8h0ZM269.3,259l1,1.1-.2.2-1-1.1.2-.2h0ZM252.6,255c-.1.4-2.9,0-3.5.4v-4c1.4-.1,3.4,2.1,3.5,3.6h0ZM251.3,203v1.3c-.9-.4-1.6-.7-2.2-.9l2.2-.4h0ZM239.4,257.8h-1.4c-.2-1,.3-1.9,1-2.3.4.9.7,1.6.7,2.3h-.2ZM239.1,244.5c0-.1.2-1,.7-2.5.6,1.7,3.6,3.6,2.7,6.1-1.7-1.3-2.8-2.5-3.4-3.6ZM243.7,249.7c0,0-1.3-.7-1.3-.7l.2-.4c.3.2,1,.5,1.3.7l-.2.4ZM245.2,237.1c-.6.7-1.4,1-2.5,1.5l1.2-1.5h1.3ZM240.2,235.8v-.9c0-1.3-.2-3.9,1.5-3.8-.4.2,2.1,1,3,1.4-1.4,1.3-2.8,2.4-4.5,3.3ZM243.6,225.4c0,.8-.9,3-.8,3.8-3-.3-1.2-4.1-.2-5.9.2.3.9,1.9,1,2.1ZM242.3,200.7c-.2.5-.3,1.1-.3,2-.9-.7-.8-1.4.3-2ZM240,203.1c1,1,1.5,1.9,1.5,2.7,0,1.6-.2,2.6-1.3,4.9.2-3-2.8-5.8-.2-7.6ZM237.8,197.5c0-.2-.1-1.3-.2-1.4,2.3-.3,2,1.7.2,1.4ZM227.5,133.5c-.4-.5-1.5-.9-1-1.6.2.2,1.2.9,1.3,1.1l-.3.5h0ZM219.6,142.5c1.5-.4,1.4,1.7,1.7,2.5-1.1-1.1-1.7-1.9-1.7-2.5ZM224,149.1c-.3-.7-.7-1.7-.7-2.3.8.4,1.2.9,1.2,1.6-.3.3-.5.6-.5.7h0ZM202.6,190c-.8-1-1.4-1.7-1.7-2.1h1.6c0,.5,0,1.7,0,2.1h0ZM194.7,283.7c-.4.3-.8.6-1.3.8.6-.6.9-1.2,1.3-1.8.1.4.2.6.3.7-.1.1-.3.1-.4.2h0ZM196.1,286.3c.1-1.3,0-4.5,2.2-4,.2,1.7-.2,3.4-2.2,4ZM205.2,182.3h1v.5h-1v-.5h0ZM212.6,186.9c-3.5,2.9-3.4,4-.6,5.9-1.4,1.3-3.5,1.6-5.3.9,5.1-1.3.6-4.2-1.6-5,2.2-2.2,5.8-1.6,7.6-1.9h0ZM205.3,196.7v-1.5c3.4,1.7,5.5-.7,8.7-1.3-.1,2.8-6.4,2.8-8.7,2.7h0ZM205.6,280.2h-1c.1,0,1.7-1.2,1.8-1.1-.1.5-.4.8-.8,1.1ZM211.7,198c.9-.3,1.7-.6,2.6-1-1.2,2-2.7,3.7.3,4.7-2.7,3.6-4.4-.5-4.9-3,.6-.2,1.2-.4,1.9-.6h0ZM211.8,214.8c2.2,0-.4,2.5-.5,3.6-.8-1.2.3-2.2.5-3.6ZM212.3,222.7c0-.4-.1-.6-.3-.9.7-.6,1-1.1,1-1.6.4.5,1.1,1,1.9,1.4-.8,1-1.4,1.2-2.5,1.1h0ZM219.6,188.7c2-.5,4.5,1.6,2.5,3-1.1-1.2-1.8-2-2.5-3ZM219.8,205.3v-2c.2.8,1.1,1.8,0,2ZM220.6,207.1c2.3-1.1,5.5,2.9,5.8,3.6,1.1,2.2-3.5,4.9-4.1,5.6,1-2,3.2-2.9.4-5.1-1.1-1.4-3.1-2.7-2.1-4ZM223.9,180.4c1.9-.2,3.2,0,5,1.2,1.6.3,0,2.7,0,3.5-1.3-1.2-4.3-3.8-5-4.6h0ZM228.6,197l-.5,1.3-.3-.2c.2-.4.2-1.4.8-1.1h0ZM223.7,218.6c.1-.2.5-.7,1.2-1.4,1.5-1.4,1.4-1.3,2.8.1.6,0-.8.4-4,1.2ZM227.1,199.7c-.9.2-2.3.3-3.2,0,0-.3,1-2,1.2-2.3.4.2,1.7,2,2,2.3ZM223.5,234.9c-2.2,2.6-4.4,2.9-6.3,2.4,1.4-3.8,5.6-9.6,6.3-2.4ZM225.4,238c1.1,2.6,2.1,5.3,3.2,7.9-1.5-.3-2.7-1.3-3.7-2.9-1-1.6-2.2-3.3-3.1-3.4,1.5-.7,2.5-1.1,3.7-1.6h0ZM227,224.4c-.5.5-1,.9-1.3,1,.2-1.4,1.7-3.3-.4-4.1,3.4-2,5,0,7.3,2.9-1.4,1.5-4.2-1.9-5.7.3h0ZM232.6,193.9c0,.2,0,.7,0,.9,0,1,.1,1.8.3,2.7-2.4-.4-3-3.6-.3-3.6h0ZM231.7,149.5c0,0,0,.1,0,.2.2,1,.7,1.9.4,2.9-1.8,0-.3-1.9-.4-2.9,0,0,0-.1,0-.2ZM226.6,149.3c.2-.2.4-.6.5-.7,0,.9,0,2.3-1,1.4.1-.1.3-.4.5-.7h0ZM218.6,169.1c1.4,1.5,3,3.4,4,.4,1.6,1.2,4.1,3.2,6,1.4,1.2,1.2,3.5,2.8,4.3,4.1-1.9-.8-4.4-3.8-5.5-1.2.5-2.2-4.3-2.5-4.5,0-2.4-3.8-4.4.5-6.3-1-.7-1.7,1.2-2.4,1.9-3.7h0ZM219.2,222c-.2.1-.6.4-.8.5v-.5s.6-.3.7-.4l.2.4h0ZM215.2,230.4c1.2-2.8,5.9-8.6,5.7-2.7-1.3,1.8-3.9,5.6-5.7,2.7ZM225.4,257.4c-1.7.7-3.2,1.3-4.5,1.6,1-1.6.9-4.8-.9-5.9-1.5-.7-2.9-1.1-4-1.2,5-1.2,6.1,3.5,9.4,5.5h0ZM221.1,274.4h-1.3c1.1-1.1,2-1.9,2.8-2.3-.5,1.1-1,1.9-1.5,2.3h0ZM222.9,272l-.3-.2.3-.9.3.2-.3.9ZM226.9,266.2c-1.2,1.4-2.7,3.3-3.6,4.8,1.3-2.2,2.5-8.3,5.8-6.9-.8.7-1.5,1.4-2.2,2.1h0ZM229.1,261.4c-3.2-.2-5.7,2.5-7,5.6-.5-3.3-3.1.8-5.2-1.2,3.2-2.8,8.7-7.6,12.5-6.9,0,.6-.1,1.5-.3,2.5h0ZM228.7,233.2c0-.2-.1-.3-.2-.5.7,0,2.9,0,3.2-1.3.6.2,1.1.4,1.8.4-.2,7.5-2.9,8.1-4.8,1.4h0ZM234,218.3c1-3.5,1.3,1.8,1.5,2.7-.7-1.2-1.4-1.9-1.5-2.7ZM234.6,150.7c.2-2,.8-1.3,2.3-1.1-.4.2-.7.3-1.2.5-.5.2-.8.4-1.2.5h0Z"/>
  </g>
  <g>
    <path class="st0" d="M452.3,242h14v73.5h30v12.2h-44v-85.8h0Z"/>
    <path class="st0" d="M509.1,304.6v-62.6h14v63.5c0,7.6,3.9,11.3,11.2,11.3s11.3-3.7,11.3-11.3v-63.5h13.5v62.6c0,15.4-8.7,24.4-25,24.4s-24.9-9.1-24.9-24.4h0Z"/>
    <path class="st0" d="M575,242h19.8l14.3,63.8,14.2-63.8h20v85.8h-13.3v-67.5l-15.6,67.5h-11.6l-15.6-67.5v67.5h-12.2v-85.8h0Z"/>
    <path class="st0" d="M659.8,242h24.7c16.7,0,24.9,7,24.9,21.2v1.6c0,9.2-3.7,15-11.6,17.5v.4c9.1,2.7,13.3,9.1,13.3,20.1v1.7c0,15.8-8,23.3-25,23.3h-26.3v-85.8h0ZM682.6,277.6c8.9,0,12.9-3.4,12.9-11v-1.6c0-7.5-3.3-10.7-11.3-10.7h-10.4v23.3h8.8ZM686.1,315.5c7.8,0,11-3.2,11-11v-2.3c0-9.1-3.7-12.4-13.7-12.4h-9.7v25.7h12.4Z"/>
    <path class="st0" d="M725.6,242h45.3v12.2h-31.4v23.9h25.4v12.2h-25.4v25.1h31.4v12.2h-45.3v-85.8Z"/>
    <path class="st0" d="M785.1,242h24.4c16.8,0,24.9,6.9,24.9,21.6v2.8c0,9.9-3.8,15.7-12.1,18.4v.4c8.5,2,12.2,8.2,12.2,20.5v10.3c0,4.5.2,8.3,1.7,11.9h-14.2c-1-2.6-1.5-4.4-1.5-11.9v-11.3c0-9.3-3.4-12.7-13.1-12.7h-8.3v35.9h-14v-85.8h0ZM807.5,279.8c8.9,0,12.9-3.7,12.9-11.6v-2.8c0-7.7-3.3-11-11-11h-10.3v25.5h8.5Z"/>
  </g>
  <g>
    <path class="st2" d="M920.5,295.7h-4.4c-6.2,0-14.6.2-17.1,1.6-.2,0-.4.2-.4.7-1.3,4.5-2.6,10.6-3.6,15.3-.6,3.3-.9,6.7-1.6,9.8-.2.7-.4,1.6-.7,2.4v.9c-.2-.4-.4-.9-.7-1.1-.2.2-.4.4-.6,1.1,0,0-.2-.2-.6-.2-.2-.7-.7-.9-1.3-.9s-1.1.2-1.6.7c-.6-.7-.9-.9-1.6-.9s-.9.2-1.3.4c-.4,0-.6.2-.7.2-1.6,0-2.2-.9-2.2-2.2-.2-.7-.2-1.5-.2-2s.2-.7.2-1.3c0,0,0-.4-.2-.5,0-.4-.2-.9-.2-1.3.2-.7.4-1.8.4-3.1.4-.9.4-2.9.4-4l.4-2.2,2.2-9.3c0-.4,0-.7-.7-.7l-10.9,2c-1.6.2-3.3.2-4.7.2s-1.6-.2-2.2-1.1c-.2-.2-.5-.4-.5-.4,0-.2,0-.4.4-.5-.7-.4-1.5-.5-1.6-1.1-.2-1.1-2-1.3-2-2.7s-1.3-1.5-1.6-2.2c-.5-.4-1.1-.9-1.1-1.1s.2-.4.4-.5c.2-.4.9-.5,1.8-.5.9.2,1.5.4,2.4.4s1.8-.2,3.1-.5l14.7-3.3,5.1-.7c.2,0,.6-.5.6-.5l1.3-5.5c.6-1.3.7-3.1,4.9-14.7.2-.5.7-1.3,1.5-1.6,1.1-.4,2.4-1.5,3.5-2,.4-.2.9-.2,1.3-.2,2,0,4,1.6,4,4.2-.6,4.4-2.2,8.7-3.5,17.8,0,.4.2.7.4.7l2.7-.2c2.6-.2,4-.4,6.6-.4s3.3.2,4.9.4c3.3.2,10.4,1.3,10.7,5.6,0,.4.2.9.2,1.3.2.4.2.5.2.9s-.2.9-.9,1.3c-.2.4-.4.5-.4.7,0,.5-.7,1.1-1.3,1.1-1.3,0-2.4-.2-3.5-.2h0Z"/>
    <path class="st2" d="M970.2,346.7l-.4.5-.9.5c-.4.4-.7.5-.9.9l-1.5.9c-.2.4-.7.5-.9.7-7.6,4.4-15.8,6.9-23.3,6.9s-7.8-1.6-11.3-4.2c-.9,0-.6-.7-.9-1.1-.2.2-.4-.7-.6-.7-.6,0-.9-2.2-.9-2.5v-.7c0-1.8,1.1-5.6,2.4-7.1l2.2-3.1c.6-.9,1.1-1.5,1.6-2.2,1.6-1.5,2.7-2.9,4-4.4,3.5-3.5,6.7-5.8,10.2-8.5,2-.4,2.4-1.6,2.6-1.6l1.8-1.1,4.7-3.5c1.1-.5,2.2-1.1,3.1-1.8.2.2.2.5.4.5,0,.2-1.1.7-1.5,1.1-.4,0-.4.2-.6.2.2,0,.4,0,.6-.2.4,0,.7-.2,1.1-.4l.9-.5c.2-.2.4-.2.6-.2.4-.4.4-.9.6-.9,0-1.3,1.8-2,2.6-2.2.4-.2.6-.5.7-.7.9,0,1.3-.5,1.6-.7.2-.2.7-.2.9-.4.2-.4.6-.5.9-.7.7-.2.9-.4.9-.7-.4-4.9-13.1-29.7-16.9-41.1-1.5-3.3-2-6.9-2.4-10.4v-1.8c0-1.6.2-3.3.6-4.9,4.7-19.3,25.5-30.2,42.8-32.6h1.8c3.1,0,5.1.7,7.6,1.8l9.7,5.6c1.5,1.1,2.7,1.8,4,2.9.9.9,1.6,1.8,2,3.1,0,.2.2.4.2.5.2.9.4,2,.4,2.9v1.1c-.4,5.3-2.6,10.4-4.6,14.2l-.6,1.1c-.9,1.5-2.2,2.4-4.2,2.4s-.9-.2-1.3-.2c-2.6-.5-2.9-2.5-3.3-4.5-.2-.4-.2-.5-.2-.9,0-.7.2-1.3.4-2,1.1-3.6,2.2-8.5,2.2-11.5,0-4.9-2.7-7.3-7.5-8-.9,0-1.8-.2-2.7-.2-15.7,0-35.3,15.3-35.3,27.5s15.3,35.3,18.6,49.1c6.4-3.5,28.2-14.2,34.4-14.2s1.3.2,1.3.5c0,.5.2.7.2.7l-.4,2.7c0,.2-1.5.9-1.3.9.9,0,1.1.2,1.5.2-.6.7-2.2.9-2.2,1.5s-.7.9-.9,1.1c-12.7,6.2-16.7,7.5-30.4,15.5.2,1.5.2,2.7.2,4.2,0,9.8-4,19.5-7.6,24-.6,1.1-1.6,1.6-2.4,2.7l-.7.5c0,.2-.2.4-.7,1.1-.7.7-2,1.6-2.9,2.2h0ZM972.2,318.1c-9.3,5.6-27.1,17.7-33.5,26.8-.7.9-1.5,1.8-1.5,2.9s.2.7.7.9c.7.4,1.5.9,1.8.9.9.2,1.6.2,2.6.2,8.7,0,19.8-5.6,26-15.6,2.6-4.5,3.8-9.8,3.8-16h0ZM942.3,353.4h-2.2c-.2-.2-.4-.2-.6-.2l.6.5c.2,0,2.2-.2,2.2-.4h0ZM942.3,356.5h1.8c.2-.2.6-.2.7-.2-.4,0-1.1-.4-1.1-.4h1.1l.6-.4h-1.1c-.6,0-1.1,0-1.3.5-.2,0-.6.2-.7.4h0ZM945.2,353.2l-1.8.5c-.2,0-.4.2-.6.2l2.9-.5c0-.2-.4-.2-.6-.2h0ZM948,355.8h-1.8c.2.2.9.2,1.1.2.6,0,.6-.2.7-.2ZM948.3,354.3c-.2,0-.4,0-.6.2,0,.4.2.4.4.4.9,0,2.6-.2,3.5-.4,0-.4-.2-.4-.4-.4-.7,0-1.8.4-2,.4-.4,0-.6-.2-.9-.2h0ZM950.2,326.8l-.9.7c.2,0,.4-.2.7-.2,0-.2.2-.4.2-.5h0ZM950,328.7c0,.2.2.4.4.4.4,0,.7-.4.9-.5-.2-.2-.4-.4-.6-.4l-.7.5h0ZM953.8,352c.4-.2-.6-.4-.9-.4-.2.2-.6.4-.9.4.2,0,.6,0,1.1.2.2,0,.6,0,.7-.2h0ZM952.2,350.9s.4.2.6.2c0-.2.4-.2.6-.2h-1.1ZM953.3,353.4c-.2,0,.2-.5.2-.5,0,0-.2,0-1.3.5,1.1,0,1.6,0,2.9-.4,0-.4,0-.5-.4-.5-.6.2-1.3.5-1.5.9h0ZM952.9,354c-.2,0-.6,0-.7.2.4.2.9.2,1.3.2s.4-.2.7-.4h-1.3ZM956.9,349.4c0-.2-.7.2-1.1.2-.6,0-.9.5-.9.9.2,0,1.1,0,1.1-.4.4-.2.9-.7.9-.7ZM959.6,350.5c.4,0,.4-.2.6-.4l-2.6.7c-.2.2-.7.5-.9.5l.6.4,2.4-1.3h0ZM960.5,347.4c.9,0,1.1,0,1.3-.2.2,0,.4-.2.4-.4h-1.1c-.2.4-.4.4-.6.5h0ZM963.4,317.7s-.7.5-.9.5c-.2.2-.4.4-.4.5,0,0,.9-.4,1.1-.4,0-.2.2-.7.2-.7h0ZM962.9,342.1c0,.2,0,.4-.2.5.2,0,.4,0,.6-.2l.7-.5c.6,0,.9,0,1.1-.2-.2-.2-.2-.4-.2-.5-.2,0-.9.2-1.1.4-.4,0-.6.5-.9.5h0ZM964,345.6c0,.2.7.2.9.2s.7-.5.7-.7c-.2,0-1.5.4-1.6.5h0ZM965.8,317.6c.2,0,.9-.5,1.1-.7,0,0-.7.2-.9.2-.6,0-1.3,1.1-1.5,1.3.6-.2.9-.5,1.3-.7h0ZM967.1,340.3s-.6.7-.7.7h-.9c-.2.2.4.4.6.5l-.7.9c.6,0,1.1-.4,1.1-.9.4-.5.7-1.3.7-1.3h0ZM967.6,343.6c.4,0,.7-.2.9-.2.4-.5,1.3-.9,1.6-1.3h-.9c-.2,0-.6,0-.7.2-.6,0-1.8.5-1.8.5h.7l.6-.5c0,.4-.2.5-.2.7,0,.4-.2.4-.2.5h0ZM968.2,316.3c0-.2-.2,0-.9.9.2,0,.6.2.6.2.4-.2.6-.5.7-.7-.2,0-.4-.2-.4-.4h0ZM968.7,316.8c.2.2.4.4.6.4,0-.2.2-.4.4-.5-.6,0-.6.2-.9.2h0ZM969.6,300.6s-.4-1.5-.4-1.6c-.2.2-.2.7-.2.7,0,.2,0,.4.2.5.2-.2.2.4.4.4h0ZM973.5,335.2c-.6,0-1.3.5-1.5.7.2.4.4.4.6.4.6,0,.4-.5.9-.5s.4,0,.6-.2c-.2-.2-.4-.4-.6-.4h0ZM972.2,328.5c.7,0,.9,0,1.1-.2l-.6-.4-.6.5h0ZM974.4,333c-.4-.2-.6-.2-.7-.2,0,.5-.4.4-.6.5v1.1c.6-.5,1.1-.9,1.3-1.5h0ZM973.6,296.3l.2.5c0,.5.6.9.7,1.1,0-.4-.7-1.5-.9-1.6h0ZM975.1,324.1c.2-.4.4-.5.4-.7s-.2-.4-.2-.5l-.7.5.6.7ZM977.1,334.7v-.7c-.7,0-2.2,2.7-2.2,3.6.2,0,.4-.4.6-.5.6-.2.6-1.1.9-1.6.6,0,.6-.5.7-.7h0ZM976.9,324.3c-.4,0-.4-.2-.4-.4s-.2.2-.2.5c.2,0,.4,0,.6-.2h0ZM976.9,325.8v-.9c0,.4-.2.7-.4,1.3.4,0,.4-.2.4-.4ZM979.6,318.8c-.2-.2-.2-.5-.4-1.1v2.4l.4-1.3h0ZM988.6,306.6c.2.2.4.2.6.2s.4-.2.6-.2c0,0,.2-.4.2-.5l-1.3.5h0ZM998,297.9l.4-.5c-.2,0-.4.2-.6.2l-.6.7.7-.4h0ZM1003.7,295.2c0-.4-.2-.4-.6-.4-.4.2-.6.4-.9.4,0,.2.6.2.7.2s.4-.2.7-.2h0ZM1006.8,293.5h-.7c-.7,0-.9.7-.9.7,0,.2.4.2.6.2.4-.2.7-.5,1.1-.9ZM1009.1,292.3l-.4.5c.2,0,.6,0,.6-.2.6-.5.9-.9,1.6-.9s.6-.2.7-.2h-.7c-.7,0-1.5.2-1.8.7h0ZM1011.5,295.2l-.9.7c.6,0,.9-.2,1.3-.4,0-.2-.2-.4-.4-.4h0ZM1013.1,291c.4,0,.7,0,1.6-.4,0,0-.2-.2-.9-.2s-.2.4-.7.5h0Z"/>
    <path class="st2" d="M1049.5,339.4h-1.3c-2.2-.2-3.1-1.1-5.3-2.7-1.8-.7-2.7-2.4-3.1-4l-.4-.5c-.2-.7-.2-1.6-.2-2.5s0-2.4.2-3.3v-2.2c1.3-12.2,9.1-25.5,11.3-37.5.2-1.1.2-2,.2-3.1-7.6,3.8-23.8,30.2-30.6,40.4-.2.5-.6.9-1.1,1.3-1.1.9-2.2.9-3.3.9-1.6,0-5.6-3.6-7.3-4-1.8-.5-2.4-2.9-2.4-4.4.2-2.5.7-4.7,1.5-7.5,1.1-4,6.7-19.7,8-23.5,7.6-21.5,15.3-43,19.3-59.1,0-.4.7-.5,1.5-.5s.7.2.9.2c2,.7,2.9,2.4,4,3.6.7.7.9,3.8.9,5.8-1.3,15.5-8.7,36.2-21.1,68.2,5.5-9.8,16-22.9,22.9-27.5.2-.2.7-.5,1.1-.5,1.8-1.1,2.7-1.1,4.6-1.1s7.8,3.1,8.9,4.2c.2.4.9,1.1.9,1.5.2.2,1.3,3.6,1.3,4.2,0,6.5-.7,12.2-2.9,18.4s-3.8,10.7-6.4,18.4c-.7,2.2-2.2,8-2.4,9.5v.7c0,.2,0,.5.2.5,2-.5,12.9-13.6,22.2-26,5.1-6.7,10.7-14.6,16.2-22,0,1.5.9,2.5.9,3.1s0,.4-.2.7l.4.9c.4-.5.6-1.1.7-1.1,0,0,.7.9.7,1.8-.4.9-.9,3.1-1.5,3.6-1.6,4.4-4.7,7.8-7.6,12,0,.4-.7.5-.7.7-.2.4-.6.4-.6.7s-.2.7-.4.7c-.2.2-.9.5-.9.7,0,.4-.4.9-.6.9s-.2-.2-.2-.5l-1.8,2,.6.2c.4-.7.6-.7,1.1-1.1-.4,2-11.8,15.6-13.1,16.9-.9,1.5-2.2,2.5-3.3,3.6-2.7,2.7-6,5.1-8,7.1-1.3.9-2.6,1.1-4,1.1h0ZM1019.9,298.5c0-.2.4-.4.4-.7s0-.4.2-.5c0,0,.2-.4.4-.5-.2,0-.4.2-.6.4-.2.4-.9,1.5-.9,2.4s0,.7.2.9c0,0,.6-.7.6-1.1s-.2-.5-.2-.7h0ZM1021,298.8c.4-.4.7-.2.7-1.5.2,0,.2-.9.2-1.5l-.9,2.9h0ZM1026.4,274.1c0-.2.7-.7.6-.7-.6,0-1.1.7-1.3.9.6,0,.6-.2.7-.2h0ZM1049.5,323.4c.4-.5,1.1-1.5,1.1-2.2-.4.2-1.1.9-1.1,1.5v.7h0ZM1051.3,311.2c-.4.5-.6.9-.6.9,0,.2-.4.4-.4.5s0,.5.2.5c.2-.2.2-.5.2-.9.4-.2.6-.5.6-1.1h0ZM1051.2,298.3c-.2-.2-.6.7-.6.7l.4,1.3c0-.2.2-.4.2-.9v-1.1h0ZM1052.8,308.1c-.4.2-.6.5-.6.7s-.6,1.1-.6,1.1c0,0,.6-.4.6-.5.4,0,.7-.5.7-.5l-.2-.7h0ZM1053,293.7l-.2.5c.2,0,.6-.4.6-1.1.2.2.2-.5.2-.5-.7,0-1.1.5-1.5.7,0,.2,0,.5-.2.9.4-.5.6-.9.6-.9,0-.2.6.4.6.4h0ZM1053.9,307.9c-.4.4-1.1,1.5-1.1,1.8.2.4.4.9.4.9v-.7c0-.4.2-.5.4-.7.4-.4.4-.9.4-1.3h0ZM1053.3,298.6c.4-.5.6-.4.6-.9l.4-.5c0-.2-.2-.5-.2-.5-.2.4-.4.9-.4,1.3l-.4.7h0ZM1054.3,312.1c0-.2,0-.5.2-.9-.2,0-.7,0-.9.2l.7.7ZM1055,305c-.2,0-.6.4-.6.5,0,0,.2.2.6.2v-.7h0ZM1057.5,330.7c0,.2.7-.4.7-.4.2,0,.6-.5.7-.7,0-.2.2-.4.4-.5-.4.4-.6.4-.6.4-.2.2-1.3.9-1.3,1.3h0ZM1058.4,331.8c-.2.2-.6.9-.6.9.4-.2,1.3-.9,1.3-1.3-.4,0-.6,0-.7.4h0ZM1060.1,330.5c.6-.5,1.3-1.1,1.6-1.6,0,0,.2-.2.4-.2-.1,0-.3,0-.6-.2l-1.5,2h0ZM1062.5,326.5v-1.5c-.2.4-.6.7-.9,1.1,0,.4-.2.7-.4,1.1l-.6.5c.7,0,.9-.4,1.1-.5.6,0,.7-.4.7-.7h0ZM1069.7,317.4l.4-.5c-.2,0-1.1.9-1.1,1.1.6,0,.7-.4.7-.5h0ZM1076.3,308.8h.2c.2,0,.2-.2.4-.4-.2.2-.6.4-.6.4h0ZM1076.8,308.5c0-.1,0-.2.2-.4-.1.1-.2.2-.2.4ZM1084.1,299.4c-.2.2-.6.5-.6.9s.2.4.4.5c0-.4,0-.7.2-.9.4-.4.6-.7.7-1.1-.4,0-.7.2-.7.5h0Z"/>
    <path class="st2" d="M1112.9,277.4c9.7-.2,20.8-2,27.3-2.9.6,0-3.5,5.5-3.8,5.6-2.6.9-5.5,1.5-8.9,2-.4,0-.7.2-1.1.2-4,.7-7.5,1.5-11.1,1.8.2,1.3.4,2.9.4,4.4,0,12.4-10.9,33.9-24,38.8-1.3.5-1.8.5-2.6.5h-2c-2,0-2.9-.7-5.1-1.6-.9,0-2.4-1.3-2.6-2-1.1-1.5-1.8-3.3-1.8-5.6.2-6.5,1.3-12.2,2.2-15.6,0-.4.2-.5.2-.9s.9-2.4.9-2.5c5.6-17.1,15.8-31.7,27.5-32.6h2c.6,0,.7,0,1.1.5.6,0,1.5.4,1.5.4,0,.4,0,1.1-.9,1.6-1.5.7-3.1,1.8-4.7,3.5,2.4,1.1,4.4,2.5,5.6,4.5h0ZM1105.6,284.5h-1.5c-1.5,0-2.9-.4-4-1.1l-2.7,6.4c-4.2,10.2-8.4,20.6-9.5,29.9,0,.2.7-.2.9-.2s.4-.4.6-.4c6.9-6.4,15.5-21.7,16.2-33.7v-.9h0ZM1105.8,308.5c-.4.2-.7.4-.7.5s.4.2.4.7c.2-.2.4-.7.4-1.3h0ZM1108.9,304.7l-.6,1.3c-.2.5-.9,2.2-1.5,2.5-.2.2.9-.4.9-.4.4-.9,1.1-1.6,1.5-3.1,0-.2,0-.7.2-.9-.2,0-.4.2-.6.5h0ZM1108.1,303.6s.2.4.4.5c-.7.9-1.1,1.6-1.3,2.4.2,0,.6-.2.6-.5.4-.4.6-1.1.9-1.3l-.2-2.2-.4,1.1h0ZM1112.3,297.2c-.2,0-.4,0-.4-.4.2-.5.6-1.1.9-1.5-1.1.4-1.6,2.4-1.6,3.5-.7.4-1.1,2.4-1.1,2.5.2,0,.9-.4.9-.4,0-.2.2-.5.2-.9s.2-.7.2-.9c.7-.4.6-1.3.9-2h0ZM1112.5,291.9c0,.7-.2,1.3-.2,2.4.4-.5.6-1.1.7-1.6l-.6-.7h0ZM1112.5,295.9c0,.2.2.4.2.5.4-.2.4-.7.4-.7-.4,0-.6.2-.6.2h0ZM1114.1,289.7v2c.4-.7.6-1.3.6-1.8s-.2-.5-.2-.9l-.4.7h0Z"/>
    <path class="st2" d="M1188.2,300.6c.2.4.2.5.2.5,0,.5-.7,1.3-.7,1.5,0,.4-.2.7-.2.9-.9,3.1-2.4,6.9-4,9.6l-.4.7c-2,3.8-4,8.7-7.5,13.1,0,.2-.6.2-.6.5-.4.9-1.3,1.3-2.4,1.8-1.1,1.1-1.8,1.3-3.6,1.3h-2.2c-7.1,0-9.7-9.3-9.7-14.9l.2-2.5c.7-8.9,3.3-18.9,5.3-28.2-3.6,5.8-5.8,12.6-7.3,15.6-.2.5-.4.7-.4,1.1-.6.9-.7,1.6-1.8,2.5,0,.7-.2,1.5-.6,2l-.7.7c-.2,0-1.3,1.3-1.3,1.5,0-.5.4-1.1,1.1-1.6,0-.4,0-.5-.4-.9.2-.2.2-.5.6-.5s.7-1.6,1.1-2.4c-1.3.7-1.5,2-1.8,2.9,0,.4-.2.4-.4.5.4,0,.6-.2.6-.2.2,0,0,.4-.6.9l-.9,1.5c0,.4-.2,1.1-.2,1.5,0-.2.2-.4.4-.4v.9c-.4.5-.7,1.5-1.1,2.4-.4.2-.6.4-.6,1.3-1.5,2.7-3.5,6.7-5.3,9.6-.2.5-.7,1.1-1.1,1.5-1.3,2.2-1.6,1.1-3.5,2.5-.9.9-2.9,3.3-4.4,3.3-.2.2-.9.4-1.1.4h-2.4c-.4,0-.7,0-1.5-.4-.4,0-3.3-1.3-3.8-1.5-3.3-.2-4.6-5.5-4.6-9.3v-.9c0-1.3,0-2.5-.2-4,1.5-16.8,12.7-43.3,12.9-47.9l.4-2.5c.4-.2.4-.4.4-.5.2-.4.9-.7,1.6-.7s3.1,1.1,3.8,1.1c2.7.9,4.6,1.1,4.6,4.2v3.1c-.7,11.3-12.4,39.5-13.7,51.7,2.6-.9,7.5-10.7,9.1-13.6l2.7-5.8c5.3-10.6,14.7-29.7,18.2-30.8.4-.2.7-.2.9-.2,1.1,0,1.6,1.3,2.6,1.3,1.6.7,6.7,2.5,8.2,4.2,1.6,2,1.8,4,1.8,6.4v.9c-.4,7.1-5.5,25.3-5.8,33.9v2.4c.2.7.2,1.3.6,1.3s.9-.7,1.3-1.3c5.8-10.2,12-27.1,14.9-35.1l1.1-3.5c-.2-.4-.4-1.5-.4-2.5s.4-1.5.4-1.8c.2-1.5,1.1-4.2,3.6-4.2,1.6.2,6,2.2,6,3.8.2.4.2.7.2,1.1,0,.9-.2,1.8-.7,3.3,4,3.5,10,5.6,14,6.4.4.2.7.2.9.4,0,.2-1.5,3.3-1.8,4.4-.2.5-.6,1.1-2.2,1.1-4.6,0-9.8-2.4-13.3-5.3-.7,1.5-3.5,8-4.4,10.2l-.4-.9c.7-2.4,2.6-6.4,4-9.6,0-.2-.2-.4-.4-.5-4,9.1-7.8,20.9-13.1,30.6,3.3-5.3,5.8-12,8-16.7.6-1.1.6-1.8,1.3-2.7h0ZM1154.5,300.8l-1.5,2.9c.7-.2.9-.5.9-1.1.4-.5.6-1.1.6-1.8h0ZM1162.2,314.8v2.2c0,.4.6-.9.6-1.1s-.2-.4-.2-.5c.2-.2.2-.5.2-.7v-1.1c0,.2-.4.5-.4.7-.2.2-.2.4-.2.5h0ZM1166,314.7l.2-.9c0-.2.2-.5.2-.5-.2.2-1.1.4-1.1.9.4,0,.7.4.7.5h0ZM1167.3,319.4l-.9-.2-.4.5c.2.2.4.2.7.2.2.2.6.2.7.2,0-.2-.2-.4-.2-.7h0ZM1168.4,323.9s-.4-.9-.4-1.1v-1.3c.2-.2-.6-.4-.7-.4s-.4.2-.4.5.2.7.4.7c0,.5.4,1.3,1.1,1.5h0ZM1168.2,316.7v-2.4l-.4,1.1c0,.2.2.7.2,1.1-.2,1.3-.4,2-.4,2.2,0-.2.2-.4.4-.5.2-.4.2-.9.2-1.5h0ZM1168.9,309.4l-.9-.4c.6.5.9.9,1.1,1.6,0-.5-.2-1.1-.2-1.3h0Z"/>
    <path class="st2" d="M1201.5,333.2c-.1.1-.2.2-.4.2h-1.1c-.4-.5-.9-.5-1.3-.9,0,0-1.1,0-1.5-.4-.9,0-.7.4-1.6.4s-.9,0-.9-.5c-.6,0-.6-1.6-.6-2s0-.5.2-.7c0-.5,0-.9.4-2v-3.3c.2-.5.4-.7.7-.9l.2-2.5c3.1-16,7.5-27.1,11.5-43.7.2-.9.7-2.4.7-3.8s.9-1.3.9-1.5c.6-.7,1.3-1.1,2.4-1.3.4,0,.9.4,2.6.5.9,0,2.6.5,2.7,1.6,1.1,1.1,1.3,2.2,1.3,3.6v2.2c0,2.7-.2,2.7-.6,5.6,4.6-6,14.7-13.1,20.4-13.1s2.7.9,3.3,2c0,.2.2.5.2.7,0,.4-.2.4-.6.4-.9.4-2,.5-6.4,2.9-.7,0-1.1.4-1.1.7l-1.5,1.3c-.6,0-1.3.5-1.3,1.1l-4.2,4.5c-.6.7-1.5,1.3-1.6,1.6-1.1.9-1.5,1.8-2.4,2.7,0,0,0,.4-.6.4-.2.5-.7,1.1-.7,1.6-.6.4-.9,1.3-.9,1.6-.4.4-.7.4-.7.7,0,0,0,.2-.2.7l-.6.4c0,.4-.4.5-.4.9.2.2-.9.4-.9.5,0,.4-.2.7-.2,1.1-.6.4-.9,1.6-.9,2-.7.9-1.5,1.5-2.6,3.5,0-.2-.4-.5-.4-.4,0,.4,0,.5.2.5,0,.5-.2.5-.6.5,0,.4-.2.7-.2.9v.7c-.2.9-.4.2-.4,1.1-.6,0-.6.4-.9.9,0-.5,0-.7.2-.7,0-.4.2-.5.2-.7-.2,0-.4-.4-.6-.4,0,0-.2.2.2-.5,0-.4.2-.7.2-.9.4-.4.4-.5.4-.9-.6,0-1.3,2-1.5,2.2,0,0-.4,1.1-.4,1.5-.4,0-.4.5-.4.9-.2.5-.9,2.2-.9,2.5s.6-1.6,1.3-2c.2-.9.4-1.5.6-1.5,0-.4,0-.9.4-.9,0,0-.2,1.6-.4,2.4l.7-.5c-.2.7-.6.9-.9,1.1v.9s0,.5-.6.5c-.2.9-.4,1.3-.6,1.3s-.2-.7-.2-.7c-.9.4-1.3,1.1-1.3,2l-.2,1.1c.6-1.1.6-1.6.6-2,.6,0,.6.2.6.4,0,0,0,.5-.6,1.1,0,.2-.2.4-.2.5s.2.4.4.4c0,0-.2.5-.4.4l-1.3,2.2c0,.5,0,1.1-.4,1.5v1.3c-.6.5-.6,1.1-.7,1.6,0,0-.2,2.7-.7,2.7l-.4,1.8c0,.4-.7,2.7-.6,2.7,0,0,.4-1.3.6-1.5.4,0,.7-2.2.7-2.4,0,0,.6-1.8.6-2.2l.7-2.2c0-.5.4-1.1.4-1.5,0-.5.6-.9.6-1.3,0-.5.6-1.1.7-1.5,0-.5.2-.9.4-1.5,0-.4.6-.9.7-1.1l-.2,1.3c0,.7-.6,1.5-.6,1.6-.2.2-.6,1.3-.6,1.5.2.2.2.4.2.5,0,.4-.2.5-.2.7l-.6-.4c0,.5-.4.7-.6.9.4.4.4.5.4.9s.7-1.3,1.3-1.8c0,.4,0,.9-.6,1.5-.2.5-.2.9-.2.9-.6.4-.6.5-.6.7s0,.5-.2.7l-1.1,2.4v1.6c.4-.2.4-.4.4-.5-.2-.2-.2-.4-.2-.5,0-.4.2-.7.2-.9.2,0,.4,0,.6-.2,0,.2.2.7.2,1.1s-.2.5-.2.5c0,0,0,.5.6.5,0-.5,0-1.1.6-1.1,0,.5-.6,1.1-.6,1.5l-.2,1.5c-.4.2-1.3,2.4-1.3,2.7-.2-.4-.4-.5-.4-.7l-.6.7v-1.3c-.2,0-.4.4-.6.4,0,0,0-.7.2-.9,0,0,0-.4.4-.4,0,0,.2-.7.4-1.1.4-.2.6-.2.6-.4,0-.5-1.8,1.6-1.8,1.8,0,.5,0,.9-.6,1.3,0,.5,0,1.1-.6,1.6.2-.2-.4.5-.7,1.1v.5c-.2.4-1.3.7-1.3.7.2-.2.4-.4.4-.7h0ZM1200.9,323.2c-.2,1.1-.4,2-.4,3.1l.9-2.7c0-.2-.4-.4-.6-.4ZM1200.9,328.5c.7-.9,1.3-.9,1.3-1.8l.4-.9c.2,0,.2-.2.2-.7-.6.2-.7,1.3-1.1,1.8,0,.9-.6.7-1.1,1.6v.7c.4-.4.4-.7.4-.7h0ZM1201.7,310.8l.2-.7c-.4,0-.7.2-.7.5-.2.2.6.2.6.2h0ZM1201.3,331.2c.2.2,1.1-.9,1.6-1.1l.4-.7c-.6,0-1.3.5-1.6.7-.2.4-.4.9-.4,1.1ZM1206,313.8c0,.2-.2.4-.2.5,0,.7-.2,1.3-.2,2.2,0-.4.9-2.9.9-2.9-.2,0-.6.2-.6.2h0ZM1218.2,289.7l-.7.7,1.1-.5c0-.4.2-1.1.2-1.5-.2,0-.4,1.1-.6,1.3h0ZM1220.6,288.8c0,.4-.2.4-.4.9l.9-.5s-.6,0-.6-.4h0ZM1222.4,281c-.7,0-.9.2-.9.5-.4,0-.7.7-.7.7,0,0,1.3-1.1,1.6-1.3h0ZM1228.1,278.3c-.7.2-2,1.6-2.2,2.4.7-.7,1.5-1.3,2.2-2.4Z"/>
    <path class="st2" d="M1267.4,277.4c9.7-.2,20.8-2,27.3-2.9.6,0-3.5,5.5-3.8,5.6-2.6.9-5.5,1.5-8.9,2-.4,0-.7.2-1.1.2-4,.7-7.5,1.5-11.1,1.8.2,1.3.4,2.9.4,4.4,0,12.4-10.9,33.9-24,38.8-1.3.5-1.8.5-2.6.5h-2c-2,0-2.9-.7-5.1-1.6-.9,0-2.4-1.3-2.6-2-1.1-1.5-1.8-3.3-1.8-5.6.2-6.5,1.3-12.2,2.2-15.6,0-.4.2-.5.2-.9s.9-2.4.9-2.5c5.6-17.1,15.8-31.7,27.5-32.6h2c.6,0,.7,0,1.1.5.6,0,1.5.4,1.5.4,0,.4,0,1.1-.9,1.6-1.5.7-3.1,1.8-4.7,3.5,2.4,1.1,4.4,2.5,5.6,4.5h0ZM1260.1,284.5h-1.5c-1.5,0-2.9-.4-4-1.1l-2.7,6.4c-4.2,10.2-8.4,20.6-9.5,29.9,0,.2.7-.2.9-.2s.4-.4.6-.4c6.9-6.4,15.5-21.7,16.2-33.7v-.9h0ZM1260.3,308.5c-.4.2-.7.4-.7.5s.4.2.4.7c.2-.2.4-.7.4-1.3h0ZM1263.4,304.7l-.6,1.3c-.2.5-.9,2.2-1.5,2.5-.2.2.9-.4.9-.4.4-.9,1.1-1.6,1.5-3.1,0-.2,0-.7.2-.9-.2,0-.4.2-.6.5h0ZM1262.6,303.6s.2.4.4.5c-.7.9-1.1,1.6-1.3,2.4.2,0,.6-.2.6-.5.4-.4.6-1.1.9-1.3l-.2-2.2-.4,1.1h0ZM1266.8,297.2c-.2,0-.4,0-.4-.4.2-.5.6-1.1.9-1.5-1.1.4-1.6,2.4-1.6,3.5-.7.4-1.1,2.4-1.1,2.5.2,0,.9-.4.9-.4,0-.2.2-.5.2-.9s.2-.7.2-.9c.7-.4.6-1.3.9-2h0ZM1267,291.9c0,.7-.2,1.3-.2,2.4.4-.5.6-1.1.7-1.6l-.6-.7h0ZM1267,295.9c0,.2.2.4.2.5.4-.2.4-.7.4-.7-.4,0-.6.2-.6.2h0ZM1268.7,289.7v2c.4-.7.6-1.3.6-1.8s-.2-.5-.2-.9l-.4.7h0Z"/>
    <path class="st2" d="M1297.4,316.3c-3.6,5.8-8,9.6-15.3,9.6s-4.9-2-6.4-3.8c-1.3-2-1.8-3.3-2-5.5v-1.6c.4-15.6,9.7-29.7,15.5-36.4.2-.2.2-.4.2-.5s0-.4-.2-.5c-.7-.7-2.2-2.2-2-2.4,1.8-.4,9.8-1.6,12.4-1.6s1.8,0,2.2.2c1.5.9,3.5,1.1,3.5,1.3.6.9.7.9.9,2.5,0,.7,0,1.3-.4,1.5-.9.5,0,1.3-1.1,1.3s-.4.2-.4.7l.7,2.9c0,.7.2,1.8.2,2.4l-.4.9c0,.4.4.5.6.5v3.5c-.2.4-.6,2.7-.6,2.7-1.1,6.9-3.3,12-5.8,17.5.4-.2,2.9-5.1,5.5-12.9-.7,3.5-2.4,8.5-4.7,13.1l.6-.7c.6-.9,1.8-3.6,1.8-3.5-1.1,4-6.9,11.8-10,14.4.6-.2,4.7-4.9,5.8-6.2-.4.5-.6.5-.6.7h0ZM1293.8,289.5c-4.4,8.5-9.8,19.7-10.2,29.3h.6c.2,0,.4-.4.7-.5,6.2-7.5,10.9-24.4,11.1-32.4l-2.2,3.6h0ZM1299.6,312.1l-.7.5c-.2,0-.2.5-.2.7,0-.2.2-.5.6-.7,0,0,.2-.2.4-.5ZM1301,298.6c-.2,0-.6,1.3-.6,1.3,0,.4.2,1.3.2,1.3l.4-2.5h0Z"/>
    <path class="st2" d="M1411.7,301.9c-.6.7-1.1,1.3-1.6,2.2-2.4,3.5-5.3,7.8-8.2,11.8-.4.4-2,.4-2.9,4.5-.2-.4-.2-.9-.2-.9,0,0-.6.7-.9.7l.6.4c-2.4,3.3-9.1,10.6-14.6,11.3l-2.6-.4c-1.5,0-1.3-1.5-2.2-1.5,0,0,0-.5.4-.5,0,.2-.2-1.1-.7-1.1h-.9c0,.2.7,1.1.9,1.1-.2.2-.4.4-.6.4s-.2-.2-.6-.5c-2.7-1.5-4.6-7.1-4.6-11.5,0-12.9,7.5-34.2,7.5-41.5s0-.7-.2-.7c-5.8,3.5-10,11.3-12,13.3l-.9,1.8c0-.2-.4-.4-.6-.4-.2.4-.9,2.5-1.5,2.5l-.4.5c0,.5-3.5,6.5-3.8,6.9-.9,1.5-2.2,4.2-3.6,6.9l-.2.5c-.6.4-.6.7-1.1.7.2.2.2.7.2,1.3-.9,2-2.9,6-4.2,9.8l-2.4,7.5c-.2,1.3-2,6.2-2.6,6.9-.4-.2-.7-.2-.9-.2-.4,0-.9,0-1.1.7-.4,0-.4-.4-.4-.4-.4,0-1.5.7-1.5.7l-.6-.2c-.2,0-.4-3.3-.6-3.5h-1.1c-1.3,0-2.6-.9-3.3-2.4v-.7c0-2.9,3.3-10,4-13.1,2-8,4.9-17.6,4.9-26.9s-.2-5.5-.7-7.6c-12,6.9-20.9,34.6-26.4,45.3-2.9.9.7,4.4-4.2,4.4-.2-.4-.4-.5-.4-.5,0,.5-.2.5-.4.5-1.3,0-2-1.3-3.6-1.3s-.6,0-.9.2c-2.7-.5-1.6-.7-2.2-4.9,2.9-14.9,7.5-26.6,9.8-42,.7-4.5.9-11.3,2.9-12.6h1.3c5.5,0,7.8,5.8,7.8,11.1s-.2,2.7-.4,4c1.5-2.5,8.2-13.1,14.9-13.1,10.4,0,11.3,9.5,11.3,17.5v1.1c0,.4.4.4.6.4,4.7-10.2,16.2-24.2,27.1-24.2h.7c3.8.4,8.9,5.6,8.9,9.5s-.2,5.1-.7,7.1c0,.2,0,.5-.4.5-.6,0-.2-.7-.6-.7s-1.3.7-1.3,1.1v1.6c.9,0,1.1-1.5,1.5-1.5,0,.2.4.7.4,1.1,0,1.1-.6.5-.9,2,.2.2.2.5.2.7,0,.9-.7,1.8-.7,1.8v1.1c0,1.6-.7,2.7-1.1,4.4v.9c-.6,1.1-1.1,3.5-1.1,3.8v1.5c0,1.6-1.1,3.3-1.1,4.2s0,.4.2.5l-.9,1.8c0,.4.2.4.2,1.1,0,2.5-1.1,3.8-1.1,5.6s-.7,3.8-.7,3.8c-.2,0-.4.9-.4,1.1.2,0,.2.2.2.5,0,1.3-.2,2.4-.2,2.9v.7c0,.4.2.7.6.9,2.2,0,8.9-9.6,10-11.1,5.1-6.9,12.4-17.5,21.7-30.4,0,.2-.4,1.6-1.1,3.3l-.7,1.1h1.6l-6.6,9.6c2.6-2.5,4.7-5.8,6-7.1l.9-.4-4,5.6c.6-.4,1.1-.7,1.5-1.3l1.6-2.2.2,1.6-1.6,3.5c-.2.4-.2.7-.6.7l-2.6,4.2h0ZM1331.4,296.1c.2.2.4.4.4.7.6-.5,1.1-.9,1.1-1.6l-1.5.9h0ZM1333.8,293.7c-.6,0-.6.4-.6.4.4,0,.6-.2.6-.4ZM1353.5,310.8l.7.7c.4-.2.6-.5.6-.7h-1.3ZM1357.5,305.6c.4,0,.6-1.5.6-1.5-.4.2-.6.2-.6.5l-.6-.2c-.2.2-.2.4-.2.5,0,.4.2.5.2.9l.6-.4h0ZM1358.7,303.7c0-.5.2-1.1.2-1.5,0,0-.7.4-1.3.5,0,.4.7.9,1.1.9ZM1367.7,285.5c-.4.2-.7.7-1.3,1.3-.6.4-.6,1.1-1.3,1.5l-.7,1.3c.2,0,.6-.5.7-.5,0-.2,0-.5.6-.7,0,0,1.1-.9,1.3-1.5,0,0,.4-.7.7-1.3h0ZM1382.9,312.7s-.2-.7-.2-1.1c-.9,0-1.1.9-1.1,1.5.6,0,1.3-.2,1.3-.4h0ZM1382.6,308.5c.4-.7.4-.9.4-1.3s-.2-.5-.4-.5v1.8h0ZM1383.9,305.6l-.2.5c0,.4-.2,1.1-.2,1.3.2-.2,1.5-1.5,1.5-4.5-.4.4-1.1,1.6-1.1,2.7h0ZM1385.3,312.3c0-.2-.6-.2-.6-.2,0,0,.2,1.3.2,1.6s-.4.2-.6.2l-.6.9.2.5c.4,0,.6-.2.7-.4.2-.9.6-1.8.6-2.7h0ZM1384.9,298.5c0-.2-.2-.4-.4-.5-.2.4-.2.5-.2.9s0,.5-.2.7c.6-.5.7-.9.7-1.1h0ZM1390.8,282.6c.2,0,.4-.7.4-1.1-.6,0-.9.2-1.1.4.2,0,.6.2.7.7ZM1391.9,280.4c-.2.2-.4.4-.4.7v.9c.4,0,.4-.4.4-.5v-1.1h0ZM1404.2,311l.9-1.5c-.9,1.1-1.8,2-1.8,3.1.7-.9.7-1.3.9-1.6h0Z"/>
  </g>
</svg>